<svg id="Layer_1" data-name="Layer 1" xmlns="http://www.w3.org/2000/svg" viewBox="0 0 202.64 256"><defs><style>.cls-1{fill:#a7a9ac;}.cls-2{fill:#ee4323;}</style></defs><title>logo</title><path class="cls-1" d="M50.27,81.87A8.63,8.63,0,0,0,47.8,80h0l-.1,0,0,0-1.8-.07,3.4-9.32a.7.7,0,0,0,.05-.25.72.72,0,0,0-.47-.67.67.67,0,0,0-.24,0,.73.73,0,0,0-.68.47l-3.29,9-.19.74L42,79.65l.22-14.45h0a.72.72,0,0,0-.72-.72h0a.7.7,0,0,0-.71.7l-.22,14.42-1.14,0-.54-.06L38.7,79h0L34.4,69a.71.71,0,0,0-.65-.43.67.67,0,0,0-.28.06h0a.73.73,0,0,0-.43.66.69.69,0,0,0,.05.28l4.19,9.71-1,.22a6.41,6.41,0,0,0-2.21,1h0a6.82,6.82,0,0,0-2.65,4.9h0l2.1,36.83,0,.09h0a10.15,10.15,0,0,0,1.76,3,7.87,7.87,0,0,0,6,2.88h.16a8.7,8.7,0,0,0,5-1.64,10.85,10.85,0,0,0,2.72-2.71l.07-.11,0,0,3-35.23a10,10,0,0,0,.06-1.07,8,8,0,0,0-2.1-5.48M36.69,124.65a8.74,8.74,0,0,1-1.7-2.6l-.05-.12L32.86,85.47v-.08a5.28,5.28,0,0,1,2-3.75h0a4.84,4.84,0,0,1,1.81-.75l.1,0,10.48.43.19.11a7.65,7.65,0,0,1,2.05,1.83,6.67,6.67,0,0,1,1.41,4.15c0,.29,0,.58,0,.89h0l-3,34.89-.15.2a10.09,10.09,0,0,1-2.08,2,7.28,7.28,0,0,1-4.24,1.39h-.12a6.42,6.42,0,0,1-4.65-2.07" transform="translate(0.03)"/><path class="cls-1" d="M161.16,36.86c.27,0,.44,0,.46,0l.27,0,.14,0,.05-.4a12.38,12.38,0,0,0,.1-1.57,6.75,6.75,0,0,0-1.51-4.62,6.59,6.59,0,0,0-4.94-2c-.35,0-.58,0-.6,0h0l-.25,0h-.12l-.07.37a10.89,10.89,0,0,0-.21,2.05,6,6,0,0,0,1.28,4c1.64,2,4.32,2.15,5.4,2.16m-5.6-7.16.05-.47.47,0a5.54,5.54,0,0,1,3.84,1.62,5.84,5.84,0,0,1,1.25,4c0,.17,0,.33,0,.51l0,.51-.51,0a5.76,5.76,0,0,1-4.08-1.78,5,5,0,0,1-1-3.33,9.26,9.26,0,0,1,.06-1h0Z" transform="translate(0.03)"/><path class="cls-1" d="M165.86,26l.14.1-.14-.1A10.39,10.39,0,0,0,164,32.39a17.69,17.69,0,0,0,.44,3.9l.07.25,0,.12h.92c4.1,0,7.14-1.18,9-3.53a10.65,10.65,0,0,0,2-6.61,14,14,0,0,0-.29-2.93l0-.23,0-.11-.35-.05a19.42,19.42,0,0,0-2.66-.2c-3.25,0-5.7,1-7.25,3m7.24-2c.57,0,1.17,0,1.8.1l.39,0,.05.39a13.8,13.8,0,0,1,.14,2,9.63,9.63,0,0,1-1.8,6c-1.6,2-4.24,3.09-7.9,3.15h-.44l-.07-.42A17.51,17.51,0,0,1,165,32.4a9.41,9.41,0,0,1,1.64-5.77c1.33-1.72,3.48-2.6,6.43-2.6" transform="translate(0.03)"/><path class="cls-1" d="M112.21,170.63a33.29,33.29,0,0,0,6.57-.67c11.52-2.38,17.64-7.62,20.87-12.68a22.55,22.55,0,0,0,3.58-11.53v-.15l5.63-8.42h0a.59.59,0,0,0,.14-.38v0h0a.67.67,0,0,0-.09-.31c-.21-.34-.73-.74-2.33-1.66-.88-.51-2-1.12-3.27-1.76l-.38-.19-.16-.09-3.6,9.63h-.33c-1.78.09-6.6,1.1-13.52,8.3-3.43,3.56-8.47,5.45-14.59,5.45a40.89,40.89,0,0,1-18.18-4.65l-1.88-1c-2.42-1.33-4.51-2.5-6.28-2.5a3.22,3.22,0,0,0-1,.15A3.28,3.28,0,0,0,81.45,150a2,2,0,0,0-.15.79,6.82,6.82,0,0,0,1,3c2,3.57,6.58,8.53,12.72,12a34.8,34.8,0,0,0,17.19,4.75M82.45,150.45a2.2,2.2,0,0,1,1.27-1.29,2,2,0,0,1,.67-.1c1.39,0,3.51,1.14,5.74,2.38.61.33,1.24.68,1.89,1a42.12,42.12,0,0,0,18.69,4.75c6.51,0,11.7-1.94,15.38-5.76,7.14-7.42,11.8-8,13-8a1.51,1.51,0,0,1,.31,0l.31.05.14,0,3.47-9.29.51.26c.55.3,1.38.74,2.16,1.19.54.3,1,.58,1.34.81l.42.28-5.65,8.46v.18c0,.05,0,.19,0,.4a20.85,20.85,0,0,1-3.33,10.8c-3.07,4.82-8.95,9.88-20.25,12.21a31.75,31.75,0,0,1-6.35.65h0a33.74,33.74,0,0,1-16.64-4.6A37.71,37.71,0,0,1,85.91,157a22.83,22.83,0,0,1-2.62-3.64,6,6,0,0,1-.9-2.54,1.1,1.1,0,0,1,.06-.39" transform="translate(0.03)"/><path class="cls-1" d="M159.34,120.8a6.22,6.22,0,1,0-6.22-6.22,6.24,6.24,0,0,0,6.22,6.22m0-11.21a5,5,0,1,1-3.52,8.51,5,5,0,0,1,3.51-8.51Z" transform="translate(0.03)"/><path class="cls-1" d="M173.09,117a4.72,4.72,0,1,0-4.72-4.72,4.72,4.72,0,0,0,4.72,4.72m0-8.21a3.49,3.49,0,1,1-3.49,3.49,3.51,3.51,0,0,1,3.49-3.49Z" transform="translate(0.03)"/><path class="cls-1" d="M30.42,172.27a4.73,4.73,0,1,0-4.72-4.72,4.73,4.73,0,0,0,4.72,4.72m0-8.21a3.49,3.49,0,0,1,0,7A3.52,3.52,0,0,1,28,170a3.49,3.49,0,0,1,2.47-5.95Z" transform="translate(0.03)"/><path class="cls-1" d="M152.06,159.38a4.72,4.72,0,1,0-4.72,4.72,4.72,4.72,0,0,0,4.72-4.72m-4.72,3.49a3.52,3.52,0,0,1-3.49-3.49,3.49,3.49,0,1,1,6,2.46,3.44,3.44,0,0,1-2.47,1" transform="translate(0.03)"/><path class="cls-1" d="M117.67,33.52A4.72,4.72,0,1,0,113,28.8a4.72,4.72,0,0,0,4.72,4.72m0-1.23a3.48,3.48,0,1,1,2.47-1,3.51,3.51,0,0,1-2.47,1" transform="translate(0.03)"/><path class="cls-1" d="M53.74,80.46h0a4.23,4.23,0,0,0,4.11-4.23v-.12A4.22,4.22,0,0,0,53.63,72h-.12a4.23,4.23,0,0,0-4.11,4.23v.12a4.2,4.2,0,0,0,4.23,4.11Zm-3.11-4.23a3,3,0,0,1,.83-2.06,3.11,3.11,0,0,1,2.15-.94h0a3,3,0,0,1,3,2.92v.09a3,3,0,0,1-.82,2.05,2.92,2.92,0,0,1-1.5.86H53a3,3,0,0,1-2.35-2.84h0Z" transform="translate(0.03)"/><path class="cls-1" d="M164.65,22a5.26,5.26,0,1,0-5.26-5.26A5.26,5.26,0,0,0,164.65,22m0-9.62a4.36,4.36,0,1,1-4.36,4.36,4.35,4.35,0,0,1,4.36-4.36" transform="translate(0.03)"/><path class="cls-1" d="M90,172.8a4.72,4.72,0,1,0,4.72-4.72A4.73,4.73,0,0,0,90,172.8m4.72,3.49a3.49,3.49,0,1,1,3.49-3.49,3.48,3.48,0,0,1-3.49,3.49" transform="translate(0.03)"/><path class="cls-1" d="M87,168.77l0-.43v-.12l-.48-.14a13.4,13.4,0,0,1-8.23-7,35.34,35.34,0,0,1-3-9.08,20.46,20.46,0,0,0-.91-3.37,2.21,2.21,0,0,0-.55-.81,1.19,1.19,0,0,0-.77-.27,1.3,1.3,0,0,0-.65.18,8.56,8.56,0,0,0-2.91,3.46c-.24.41-.5.88-.73,1.19l-.93,1.3-.33-1.56a4.75,4.75,0,0,1-.09-1,41.62,41.62,0,0,1,.56-5.25,41.16,41.16,0,0,0,.59-5.58,5.87,5.87,0,0,0-.43-2.53,2,2,0,0,0-1.79-1.27,5.21,5.21,0,0,0-2.68,1.25,6,6,0,0,1-2.91,1.37,1.51,1.51,0,0,1-.46-.07l-.51-.14v-.55a10.64,10.64,0,0,1,1-3.05A11.75,11.75,0,0,0,62,131a3.68,3.68,0,0,0-.06-.66,2.51,2.51,0,0,0-.61-1.31,1.59,1.59,0,0,0-1.19-.46,6.16,6.16,0,0,0-2.43.81,10,10,0,0,1-1.83.75l-.83.2-.05-.84v-.33c0-.42,0-.92.06-1.37s.06-.94.06-1.33a4,4,0,0,0-.28-1.73,1.4,1.4,0,0,0-1.1-.79l-.27,0a1.86,1.86,0,0,0-1.31.58c-1.11,1.08-1.72,3.37-2.27,5.29l-.29,1.07-.79-.47a2.91,2.91,0,0,0-1.47-.43,2.47,2.47,0,0,0-1.08.25,1.87,1.87,0,0,0-.94,1.17,7.36,7.36,0,0,0-.29,2.33,44.42,44.42,0,0,0,.93,7.57l.26,1.41L45,142.08a6.11,6.11,0,0,0-2.49-.85,1.71,1.71,0,0,0-1,.27,2.54,2.54,0,0,0-1.14,1.73,4,4,0,0,0,0,.63c0,1.53.83,4.12,4.1,8.54a7.75,7.75,0,0,1,1,1.83l.42,1.15-1.2-.21a11.76,11.76,0,0,0-1.75-.18,3.21,3.21,0,0,0-2.45.88,3,3,0,0,0-.69,2c0,.14,0,.29,0,.45a5.09,5.09,0,0,0,1.75,3.15c3,2.75,8.75,4.42,11.45,4.72a4.92,4.92,0,0,1,1.59.39h0L54.28,168h0a1.84,1.84,0,0,0-1.61.85,2.07,2.07,0,0,0-.26,1,4.48,4.48,0,0,0,.5,1.89L53,172l0,.05.24.1a20.66,20.66,0,0,0,8.36,1.7,25.28,25.28,0,0,0,9.93-2.06l1.59-.76-1.69-.53a19.24,19.24,0,0,1-7.18-4.13,19.57,19.57,0,0,1-1.5-1.52A23,23,0,0,1,61,162.62l-.27-.39a33.06,33.06,0,0,1-3.55-6.93c-.44-1.13-.85-2.34-1.27-3.68-.19-.62-.37-1.25-.55-1.88,0-.16-.1-.32-.16-.49a4.44,4.44,0,0,1-.28-1.05l.11,0,.81,1.65c1.67,3.43,3.39,7,6,9.87a30,30,0,0,0,5.64,4.83,30.3,30.3,0,0,0,9.9,4.23,32.3,32.3,0,0,0,7.4.87c.75,0,1.27,0,1.51,0h.13l.11-.06a.8.8,0,0,0,.47-.69v0ZM69.54,153.61a9.87,9.87,0,0,0,1.16-1.74,12.11,12.11,0,0,1,1.48-2.2l.85-.91.34,1.2c.18.62.36,1.46.53,2.22l0,.12c.85,3.87,2.26,10.4,7,14.37l1.9,1.61-2.46-.37C73,166.8,60,162.18,55,143.41a1,1,0,0,0-.93-.7,1,1,0,0,0-.53.15l-.26.16-.09,0,0,.42a45.08,45.08,0,0,0,2.21,11.13c1.92,5.74,5.49,12.27,12.13,15.74l1.64.86-1.8.45a24,24,0,0,1-5.83.74,19.57,19.57,0,0,1-7.26-1.35l-.31-.13-.1-.32a3.24,3.24,0,0,1-.11-.45l-.11-.74.75-.06a2.79,2.79,0,0,0,1.57-.64,1.84,1.84,0,0,0,.67-1.35v-.05a2,2,0,0,0-.82-1.53,5.29,5.29,0,0,0-2.72-.93,25,25,0,0,1-7.43-2.25,13.28,13.28,0,0,1-3.15-2,3.72,3.72,0,0,1-1.38-2.32c0-.12,0-.23,0-.33a1.58,1.58,0,0,1,.33-1.11,1.87,1.87,0,0,1,1.42-.43,10.07,10.07,0,0,1,1.8.22l.75.11h.15a1.31,1.31,0,0,0,1.23-.74,1.84,1.84,0,0,0,.19-.86,6.51,6.51,0,0,0-1.51-3.53,30.86,30.86,0,0,1-2.85-4.53,7.73,7.73,0,0,1-1-3.17,1.61,1.61,0,0,1,0-.39,1.12,1.12,0,0,1,.29-.63l.25-.27.37,0a7.55,7.55,0,0,1,2,.84,4.9,4.9,0,0,0,2,.74,1,1,0,0,0,.82-.36h0a1.23,1.23,0,0,0,.25-.79,2.3,2.3,0,0,0,0-.47l-.09-.44a50.46,50.46,0,0,1-1.14-8.52,4.86,4.86,0,0,1,.25-1.82l.15-.35.38-.07h.17a2.36,2.36,0,0,1,1.27.58,2.05,2.05,0,0,0,1.15.52,1.05,1.05,0,0,0,.93-.62h0a11.61,11.61,0,0,0,.55-1.7c.22-.78.44-1.55.71-2.32.19-.54.38-1.1.61-1.63a1.12,1.12,0,0,1,.56-.61.74.74,0,0,1,.25,0,.37.37,0,0,1,.25.08.61.61,0,0,1,.11.41c0,.13,0,.27,0,.39,0,.88-.1,1.77-.1,2.68v.24a2.67,2.67,0,0,0,.55,1.8,1.57,1.57,0,0,0,1.19.48,5.33,5.33,0,0,0,2-.54c.76-.32,1.55-.64,2.3-1l.34-.19a.84.84,0,0,1,.31-.1l.11,0a.46.46,0,0,1,.08.22,4.19,4.19,0,0,1,.07.78,5.86,5.86,0,0,1-.31,1.79c-.23.72-.53,1.42-.83,2.12a10.61,10.61,0,0,0-1.09,3.61,2.2,2.2,0,0,0,.2,1,2,2,0,0,0,1.31,1,3.06,3.06,0,0,0,.85.12,7.11,7.11,0,0,0,3.71-1.62,8.47,8.47,0,0,1,1.48-.91l.57-.23.31.52.06.13a4.29,4.29,0,0,1,.29,1.83,42.08,42.08,0,0,1-.57,5.45A38.68,38.68,0,0,0,66,151c0,1.35.22,2.41,1,3a2.65,2.65,0,0,0,.5.26l0,0,.14,0,.07.27.14-.21.15,0v0h.19a1.82,1.82,0,0,0,1.39-.7" transform="translate(0.03)"/><path class="cls-1" d="M50.7,131.87Z" transform="translate(0.03)"/><path class="cls-1" d="M36.87,14.74a3,3,0,0,0-3,2.28,4.22,4.22,0,0,0-.15,1.1c0,2.14,1.61,4.05,3.23,5.46A20.39,20.39,0,0,0,40.41,26l.22.13.09,0L41,26a12.72,12.72,0,0,0,3.86-3.87,9,9,0,0,0,1.62-4.6v-.11a3.16,3.16,0,0,0-1.61-2.85,3,3,0,0,0-1.49-.41,4.08,4.08,0,0,0-2.95,1.63l-.31.37-.38-.3a4.83,4.83,0,0,0-2.89-1.07M40.47,18l.31-.58a6,6,0,0,1,.77-1.05,2.64,2.64,0,0,1,1.85-1,1.82,1.82,0,0,1,.89.25,1.91,1.91,0,0,1,1,1.8v.09A7.56,7.56,0,0,1,44,21.15,12,12,0,0,1,41,24.51l-.27.2-.28-.17a19.45,19.45,0,0,1-3.08-2.34C36.08,21,35,19.56,35,18.11a2.79,2.79,0,0,1,.11-.76A1.74,1.74,0,0,1,36.87,16a4,4,0,0,1,2.89,1.55l.59.69Z" transform="translate(0.03)"/><path class="cls-1" d="M77.06,31a2.85,2.85,0,0,0-1.45-2.58l-.07.13.07-.13a2.8,2.8,0,0,0-1.35-.37,3.68,3.68,0,0,0-2.66,1.47l-.28.33L71,29.63a4.37,4.37,0,0,0-2.6-1,2.67,2.67,0,0,0-2.68,2.06,3.72,3.72,0,0,0-.13,1c0,1.95,1.5,3.71,3,5a19,19,0,0,0,3,2.11l.2.11.08,0,.27-.17a11.5,11.5,0,0,0,3.49-3.49,8.18,8.18,0,0,0,1.46-4.16Zm-5,6.45-.24.17-.26-.15a17.3,17.3,0,0,1-2.78-2.11c-1.12-1.06-2.11-2.39-2.1-3.69a2.72,2.72,0,0,1,.09-.69,1.58,1.58,0,0,1,1.61-1.25A3.63,3.63,0,0,1,71,31.17l.53.62.38-.72h0a5.79,5.79,0,0,1,.72-1,2.42,2.42,0,0,1,1.65-.89,1.68,1.68,0,0,1,.81.22A1.76,1.76,0,0,1,76,31.06v.08a6.76,6.76,0,0,1-1.12,3.31,10.88,10.88,0,0,1-2.78,3" transform="translate(0.03)"/><path class="cls-1" d="M23.76,153.37a2.27,2.27,0,0,0-1.15-2.05l-.06.11.06-.11a2.24,2.24,0,0,0-1.07-.29,2.94,2.94,0,0,0-2.11,1.17l-.22.26-.27-.21a3.47,3.47,0,0,0-2.07-.77,2.13,2.13,0,0,0-2.12,1.63,3,3,0,0,0-.1.78c0,1.55,1.19,2.94,2.37,4a13.93,13.93,0,0,0,2.38,1.67l.16.09.07,0,.21-.13a9,9,0,0,0,2.76-2.77,6.4,6.4,0,0,0,1.16-3.29Zm-4,5.11-.19.13-.21-.12a13.84,13.84,0,0,1-2.2-1.67,4.44,4.44,0,0,1-1.66-2.93,2,2,0,0,1,.07-.54,1.25,1.25,0,0,1,1.27-1,2.86,2.86,0,0,1,2.07,1.11l.42.49.31-.57h0a4.34,4.34,0,0,1,.57-.76,1.88,1.88,0,0,1,1.3-.71,1.22,1.22,0,0,1,.64.18,1.38,1.38,0,0,1,.7,1.29v.06a5.31,5.31,0,0,1-.89,2.62,8.7,8.7,0,0,1-2.2,2.41" transform="translate(0.03)"/><path class="cls-1" d="M187.81,87.45v-.09A2.57,2.57,0,0,0,186.5,85a2.46,2.46,0,0,0-1.22-.33A3.28,3.28,0,0,0,183,85.93l-.42.48L182,86a4,4,0,0,0-2.27-.81,2.42,2.42,0,0,0-2.42,1.86,3.37,3.37,0,0,0-.12.94c0,1.74,1.26,3.28,2.57,4.43a18.1,18.1,0,0,0,3,2.1l.13.07.09,0,.2-.12a10.88,10.88,0,0,0,3.24-3.24,7.56,7.56,0,0,0,1.36-3.86m-4.44,6-.38.28-.41-.25a16.15,16.15,0,0,1-2.71-2.09A5.15,5.15,0,0,1,178,88a2.72,2.72,0,0,1,.09-.69,1.58,1.58,0,0,1,1.62-1.25,3.51,3.51,0,0,1,2.53,1.35l.24.28.15.18.29-.53a5.23,5.23,0,0,1,.68-.92,2.42,2.42,0,0,1,1.64-.89,1.62,1.62,0,0,1,.81.22h0a1.74,1.74,0,0,1,.88,1.63v.07a6.56,6.56,0,0,1-1,3.11,10.38,10.38,0,0,1-2.56,2.88" transform="translate(0.03)"/><path class="cls-1" d="M25.83,57.92h0l-.14-.13h0a5.51,5.51,0,0,0-2.91-.94,3.63,3.63,0,0,0-2.71,1.21c-.95.9-6.82,6.69-6.82,14.85,0,3.73,1.23,8,4.73,12.4l.2.26-3.05,39.92h0v.13A7,7,0,0,0,16,129a4,4,0,0,0,3.41,2.1h.26A3.65,3.65,0,0,0,22.26,130a7,7,0,0,0,1.56-4.37l2-39.81.17-.21c1.24-1.59,5.38-7.42,5.38-14.58a18.77,18.77,0,0,0-5.54-13.13M24.36,85.26v0l-2,40.31h0a5.69,5.69,0,0,1-.64,2.7,2.34,2.34,0,0,1-2.09,1.27h-.14a2.62,2.62,0,0,1-2.21-1.35,5.31,5.31,0,0,1-.65-2.67h0l3.09-40.47-.19-.23c-3.57-4.36-4.8-8.44-4.8-12,0-7.89,6-13.38,6.37-13.69h0l.08-.08h0a2.09,2.09,0,0,1,1.6-.72,4.11,4.11,0,0,1,1.89.56l.11.07.09.09A17.52,17.52,0,0,1,30,71.19c0,7.56-5.1,13.51-5.42,13.87l-.13.15Z" transform="translate(0.03)"/><path class="cls-1" d="M36.79,131.81l-.09-.13-.13.07-.37.18a7.53,7.53,0,0,0-2.32,2.17,19.3,19.3,0,0,0-2,3.24,24.58,24.58,0,0,0-1,2.35c-.3.84-.49,1.71-.73,2.55-.06.21-.12.42-.17.62-.05-1.09-.1-2.18-.1-3.26a28.64,28.64,0,0,1,.17-3.21,32.13,32.13,0,0,1,1.07-5.23l.46-1.61-1.39.93a15,15,0,0,0-3.41,3.36,15.6,15.6,0,0,0-3.18,9.5,18.19,18.19,0,0,0,.25,3c1.52,9.06,9.62,14.28,11.82,15.55l.15.08.73-1.16-.06-.09c-.54-.72-1.41-2.38-1.41-5.61a25.45,25.45,0,0,1,.71-5.65c.31-1.34.67-2.66,1-3.95a34.22,34.22,0,0,0,1.54-8.29,9.16,9.16,0,0,0-1.33-5Zm-1.2,13.35,0,.14c-.33,1.24-.68,2.53-1,3.85a26.65,26.65,0,0,0-.74,5.93,15.14,15.14,0,0,0,.31,3.19l.3,1.37-1.1-.86C30.1,156.25,26,152,25.05,146.1a16.61,16.61,0,0,1-.23-2.74A14.51,14.51,0,0,1,28.19,134l1.22-1.47-.34,1.88a32.39,32.39,0,0,0-.5,5.59,22.15,22.15,0,0,0,.6,5.52l.64,2.27.55-2.29c1.73-7.15,4.12-10.37,5.38-11.64l.55-.56.28.74a8.66,8.66,0,0,1,.54,3.15,32.23,32.23,0,0,1-1.52,8l.16.05Z" transform="translate(0.03)"/><path class="cls-1" d="M74.75,26.26l.11-.12-.11.12c3,2.63,7.46,2.9,9.26,2.9h.32L84,29.3l36.33-5.86h0c5.81-1.13,8.06-3.72,8.89-5.71a7.17,7.17,0,0,0,.55-2.8,11.31,11.31,0,0,0-2.09-6.14,9.46,9.46,0,0,0-5.57-3.58,27,27,0,0,0-7-.83,35.25,35.25,0,0,0-4.46.27h0a.63.63,0,0,0-.53.59v.07a.6.6,0,0,0,.63.51h0A33.47,33.47,0,0,1,115,5.56a27.49,27.49,0,0,1,6.34.68c2.24.56,4.3,1.53,5.39,3.2a10.18,10.18,0,0,1,1.9,5.49,5.92,5.92,0,0,1-.46,2.34c-1,2.43-3.76,4.18-8,5L85,28s-.4,0-.94,0c-2.1,0-6-.35-8.52-2.6a7.15,7.15,0,0,1-2.35-5.44c0-.07,0-.14,0-.21a7.62,7.62,0,0,1,2.88-5.68,16.89,16.89,0,0,1,6-3.21A19.31,19.31,0,0,1,87.53,10c4,0,7.08,1.39,8.61,3.86a.57.57,0,0,0,.5.28.68.68,0,0,0,.31-.08.61.61,0,0,0,.26-.37l0-.14a.59.59,0,0,0-.09-.31,8.76,8.76,0,0,0-4.77-3.63l-1.16-.41,1.11-.53a9.42,9.42,0,0,1,3.87-.85c2.11,0,5.28.76,8.45,4.44a.59.59,0,0,0,.45.21h.1a.62.62,0,0,0,.28-.14.57.57,0,0,0,.21-.4v0a.62.62,0,0,0-.14-.39,14.82,14.82,0,0,0-4.74-3.77l-.91-.43-.19-.05,1.14-.44a10.38,10.38,0,0,1,3.64-.69c2.24,0,5.31.83,7.37,4.86a.61.61,0,0,0,.57.31h0l.15,0h0a.61.61,0,0,0,.32-.53.54.54,0,0,0-.07-.27C110.6,5.93,107,5,104.43,5a11,11,0,0,0-4.52,1,.57.57,0,0,0-.33.53v.06l0,.53,0,.19L99,7.06a10.27,10.27,0,0,0-2.7-.36A10.69,10.69,0,0,0,91.14,8a.58.58,0,0,0-.27.49v.07l.06.55v0h0v.08l-.65-.12a17.59,17.59,0,0,0-2.85-.23,20.19,20.19,0,0,0-5.71.84,16.4,16.4,0,0,0-7.08,4,8.58,8.58,0,0,0-2.66,6c0,.08,0,.16,0,.24a8.42,8.42,0,0,0,2.75,6.28" transform="translate(0.03)"/><path class="cls-1" d="M142.5,26.81Z" transform="translate(0.03)"/><path class="cls-1" d="M142.29,24.48a12.62,12.62,0,0,0-.81,1.23l-.27.5-.09.17.72.23.66.2a20.68,20.68,0,0,0,5.66.88,10.65,10.65,0,0,0,7.89-3,9,9,0,0,0,2.1-3.19h0l.12-.37,0-.13-.47-.25a14.67,14.67,0,0,0-2.91-1.2,11.16,11.16,0,0,0-3.14-.46c-.3,0-.59,0-.87,0,5-3,6-6.9,6-9.32a7.88,7.88,0,0,0-.3-2.27h0l-.12-.36,0-.14-.52.07c-6.17.82-8.7,4.5-9.7,7.42a13.35,13.35,0,0,0-.4,1.43,9.92,9.92,0,0,0-2.2-6.34,8.85,8.85,0,0,0-2.4-2.09h0l-.34-.18-.12-.06-.32.41a11.89,11.89,0,0,0-2.8,7.37c0,5,3.76,8.61,4.68,9.42m5.93,2h0a18.91,18.91,0,0,1-4.51-.61l-.73-.19.45-.6c1.3-1.76,4.13-4.69,8.37-4.69a10.13,10.13,0,0,1,2.79.41,13.34,13.34,0,0,1,1.69.62l.51.23-.27.48c-.9,1.62-3.15,4.34-8.29,4.35m-9.36-11.32a10.2,10.2,0,0,1,1.91-5.77l.3-.46.43.35A8.41,8.41,0,0,1,144.56,16,16,16,0,0,1,143,22.5l-.3.69-.52-.55a11.34,11.34,0,0,1-3.32-7.52M146.69,19h0a12.35,12.35,0,0,1,1.4-5.65A9.63,9.63,0,0,1,155,8.54l.55-.11.06.54c0,.25,0,.53,0,.85a8.42,8.42,0,0,1-1.43,4.66c-1.16,1.75-3.22,3.57-6.83,5l-.7.28Zm-1.19,1.69.08.54a12.35,12.35,0,0,0-1,.82,20.1,20.1,0,0,0,.89-2.86v.12c0,.83.06,1.36.06,1.38" transform="translate(0.03)"/><path class="cls-1" d="M129.32,22.39h0l-.33-.17-.12-.06-.3.4a11.3,11.3,0,0,0-2.67,7c0,5.31,4.41,8.93,4.67,9.15l.42.33.15.12.33-.65a17.66,17.66,0,0,0,2.25-8,11.22,11.22,0,0,0-.13-1.58,14.84,14.84,0,0,0,2.52,2.8,13.18,13.18,0,0,0-1,1.44l-.25.47-.09.17.69.22.62.18.7.18a14.55,14.55,0,0,0-5.39,4.48l-.29.45-.11.16.67.28.6.24h0a18.33,18.33,0,0,0,6.57,1.4,9.78,9.78,0,0,0,6.78-2.5,8.58,8.58,0,0,0,2-2.55l.15-.34.05-.12-.42-.28a15.67,15.67,0,0,0-2.1-1.16,9.15,9.15,0,0,0,5.74-5.3h0l.11-.35.05-.13-.45-.24A13.82,13.82,0,0,0,148,27.32,10.06,10.06,0,0,0,138,29.7a15.91,15.91,0,0,0,1.35-6.07,9.45,9.45,0,0,0-2.1-6.14,8.21,8.21,0,0,0-2.3-2h0l-.32-.17-.12-.06-.31.39a11.49,11.49,0,0,0-2.71,7.09,9.23,9.23,0,0,0,.16,1.69,8.77,8.77,0,0,0-2.35-2.06m13.87,11.38a10,10,0,0,0-2.29-.28,9.47,9.47,0,0,0-1.8.18,18.73,18.73,0,0,1-1.84-.37l-.7-.18.43-.57c1.25-1.68,3.93-4.47,8-4.47a9.64,9.64,0,0,1,2.67.39,14.92,14.92,0,0,1,1.61.59l.48.22-.26.46a8,8,0,0,1-6.27,4m-4.27,6.47h0a16.39,16.39,0,0,1-5.4-1l-.68-.24.48-.53a11.3,11.3,0,0,1,5.76-3.55,17.24,17.24,0,0,0,2.43.19,15,15,0,0,0,1.55-.09,9.65,9.65,0,0,1,1.23.38,11.55,11.55,0,0,1,1.55.75l.46.25-.3.43a8.13,8.13,0,0,1-7.08,3.45m-2.52-9.8-.49-.52a10.77,10.77,0,0,1-3.16-7.17,9.85,9.85,0,0,1,1.81-5.5l.29-.43.41.32a8,8,0,0,1,2.92,6.47,15.24,15.24,0,0,1-1.49,6.17Zm-3.87,0A15.33,15.33,0,0,1,131,36.66l-.29.66-.5-.52a10.82,10.82,0,0,1-3.16-7.17,9.87,9.87,0,0,1,1.82-5.5l.29-.43.41.33a8,8,0,0,1,2.92,6.46" transform="translate(0.03)"/><path class="cls-1" d="M48.36,12.67h0l.28.14v8.36a3.47,3.47,0,0,0,.9,2.33,4.28,4.28,0,0,0,3.27,1.19h11.4a6.89,6.89,0,0,0,2.59-.54,4,4,0,0,0,1.57-1.21,3.79,3.79,0,0,0,.7-2.3V13.08l.3-.13a3.28,3.28,0,0,0,1.44-1.2,3.32,3.32,0,0,0,.5-1.81,5.4,5.4,0,0,0-.23-1.48A7.13,7.13,0,0,0,67,4a19.36,19.36,0,0,0-8.3-1.55c-.62,0-1.25,0-1.88,0a13.67,13.67,0,0,0-7,2.4,7.24,7.24,0,0,0-3.31,4.45,3.83,3.83,0,0,0,0,.47,3.08,3.08,0,0,0,1.86,2.81m-.61-3.11A6.16,6.16,0,0,1,50.47,6,12.36,12.36,0,0,1,56.9,3.77c.61,0,1.22,0,1.81,0a18.53,18.53,0,0,1,7.58,1.36A6.09,6.09,0,0,1,69.9,8.8a4.12,4.12,0,0,1,.18,1.13,2.11,2.11,0,0,1-.29,1.13,2,2,0,0,1-.86.73l-.1.05v.07l-1,.15v8.58a2.44,2.44,0,0,1-1.15,2.17,4.63,4.63,0,0,1-2.53.64H52.81a3.14,3.14,0,0,1-2.35-.78,2.32,2.32,0,0,1-.59-1.56v-.05h0V11.94l-.41-.14a3.29,3.29,0,0,1-1.19-.68,1.68,1.68,0,0,1-.54-1.26c0-.09,0-.2,0-.3l-.16,0Z" transform="translate(0.03)"/><path class="cls-1" d="M182.84,105l-.05.16.05-.16-.4-.11-.14,0-.21.52a14.29,14.29,0,0,0-.73,4.68c0,3.93,1.46,9.65,8.44,14.28l.76.51.19-.9a24.77,24.77,0,0,0,.47-4.88,19.36,19.36,0,0,0-1.7-8.34,10.53,10.53,0,0,0-6.68-5.71m.75,1.57a9.47,9.47,0,0,1,5.17,5.48,19.11,19.11,0,0,1,1.18,7c0,1.09-.07,2.07-.14,2.82l-.1.91-.72-.56c-5.3-4.14-6.46-8.77-6.46-12.07a13.64,13.64,0,0,1,.38-3.23l.14-.58Z" transform="translate(0.03)"/><path class="cls-1" d="M116.44,173.57a23.53,23.53,0,0,0-12.27,3.48l-.92.62,1,.45a33.93,33.93,0,0,0,14,3.15,25.18,25.18,0,0,0,11.17-2.33l.87-.47-.8-.57a22.21,22.21,0,0,0-13.07-4.33m10.48,5.08a26.93,26.93,0,0,1-8.65,1.39,32.05,32.05,0,0,1-11.33-2.14l-1.12-.43,1.08-.5a22.78,22.78,0,0,1,9.54-2.16A20.64,20.64,0,0,1,127,177.74l.94.56Z" transform="translate(0.03)"/><path class="cls-1" d="M46.23,174.29a15.68,15.68,0,0,0-8.45.66l-.68.28.6.43a22.5,22.5,0,0,0,8.72,3.88,16.78,16.78,0,0,0,7.58-.06l.63-.19-.46-.48a14.69,14.69,0,0,0-7.94-4.52M52.39,179a17.79,17.79,0,0,1-5.81-.23,21.46,21.46,0,0,1-7.11-2.87l-.67-.42.77-.19a15.12,15.12,0,0,1,6.5-.17,13.71,13.71,0,0,1,6.5,3.29l.54.49Z" transform="translate(0.03)"/><path class="cls-1" d="M83.48,174.1a7,7,0,0,0-3.46-.81l-.45,0a5.37,5.37,0,0,0-2,.43,2.07,2.07,0,0,0-1.07,1.11,2,2,0,0,0-.13.72c0,1.38,1.15,3,2.26,4.11l.15.15.06,0,.29,0c2.64-.28,4.1-.94,4.92-1.66a2.49,2.49,0,0,0,1-1.88v-.1a2.67,2.67,0,0,0-1.5-2.11m-4,4.46-.27,0-.18-.2a10.67,10.67,0,0,1-.87-1.15,3.37,3.37,0,0,1-.64-1.63.83.83,0,0,1,.05-.32,1,1,0,0,1,.6-.5,4.31,4.31,0,0,1,1.4-.26h.44a5.65,5.65,0,0,1,2.71.59c.64.34,1,.78,1,1.16h0v0c0,.37-.28.82-1,1.24a8.57,8.57,0,0,1-3.25,1l0,.16Z" transform="translate(0.03)"/><path class="cls-1" d="M154.56,169.19l0-.43,0-.15h-.14l-.44,0h-.56a10.55,10.55,0,0,0-7.16,2.61,10.06,10.06,0,0,0-3,4.44l-.19.63-.07.21.88,0h.78c3.8,0,6.6-.93,8.3-2.81a6.36,6.36,0,0,0,1.63-4.22c0-.14,0-.23,0-.28ZM153,170.87a4.82,4.82,0,0,1-1.08,1.92c-1.15,1.28-3.14,2.09-5.75,2.3l-1.45.12.8-1.21a8.86,8.86,0,0,1,6.74-4l1-.1Z" transform="translate(0.03)"/><path class="cls-1" d="M139.36,90.89a3,3,0,0,0,0,.45l.07.59,0,.21.75-.3A5.14,5.14,0,0,0,143.42,89a2.88,2.88,0,0,0,.17-1,2.84,2.84,0,0,0-.32-1.36l-.19-.34L143,86.2l-.5.2A4.89,4.89,0,0,0,140,88.52a5,5,0,0,0-.63,2.37" transform="translate(0.03)"/><path class="cls-1" d="M146.46,52.24l-.39-.06-.15,0-.14.52a5.13,5.13,0,0,0-.21,1.45,4.86,4.86,0,0,0,2.26,4.07l.51.3.2.11.2-.79a7.73,7.73,0,0,0,.3-2,4,4,0,0,0-.6-2.22,3,3,0,0,0-2-1.34Z" transform="translate(0.03)"/><path class="cls-1" d="M159.56,3.89l-.39-.06-.15,0-.15.52a5.49,5.49,0,0,0-.2,1.45,4.85,4.85,0,0,0,2.26,4.07l.51.29.19.12.21-.79a7.73,7.73,0,0,0,.3-2,3.94,3.94,0,0,0-.6-2.22,3,3,0,0,0-2-1.34" transform="translate(0.03)"/><path class="cls-1" d="M143,46.9a3.5,3.5,0,0,0,.72-1.69l0-.22,0-.22-.44.07a3.71,3.71,0,0,0-2.7,1.45,2.2,2.2,0,0,0-.34,1.17,1.64,1.64,0,0,0,.06.48h0l0,.15,0,.14.29,0,0-.16,0,.16A3.51,3.51,0,0,0,143,46.9" transform="translate(0.03)"/><path class="cls-1" d="M180.87,80.56a3.5,3.5,0,0,0,.73-1.7l0-.22,0-.22-.44.07a3.74,3.74,0,0,0-2.7,1.45,2.2,2.2,0,0,0-.34,1.17,1.57,1.57,0,0,0,.06.48l0,.15,0,.14.29,0,0-.17,0,.17a3.5,3.5,0,0,0,2.27-1.28" transform="translate(0.03)"/><path class="cls-1" d="M190.57,141a2.21,2.21,0,0,0,0-1.19l0-.13-.05-.13-.23.15a2.36,2.36,0,0,0-1.2,1.57,1.39,1.39,0,0,0,.11.78,1.14,1.14,0,0,0,.16.27l.06.07.06.07.16-.1-.06-.09.06.09a2.26,2.26,0,0,0,1-1.36" transform="translate(0.03)"/><path class="cls-1" d="M182.88,154.65a5.56,5.56,0,0,0-.07-3l-.11-.34-.11-.33-.59.39c-1.77,1.18-2.81,2.49-3,3.93a3.43,3.43,0,0,0,.28,1.94,3.32,3.32,0,0,0,.4.67l.16.18.16.18.39-.25-.15-.23.15.23a5.71,5.71,0,0,0,2.49-3.4" transform="translate(0.03)"/><path class="cls-1" d="M15.6,144.86a4.06,4.06,0,0,0-1.46-1.64l-.22-.13L13.7,143l-.15.5a4.46,4.46,0,0,0,.2,3.65,2.51,2.51,0,0,0,1.08,1,2.78,2.78,0,0,0,.55.19l.18,0,.17,0,.1-.33-.19-.06.19.06a4.14,4.14,0,0,0-.23-3.1" transform="translate(0.03)"/><path class="cls-1" d="M26.26,159.19a2.32,2.32,0,0,0-.86-1l-.13-.08-.13-.08-.09.3a2.59,2.59,0,0,0,.12,2.15,1.55,1.55,0,0,0,.64.56,1.9,1.9,0,0,0,.32.11h.1l.1,0,.06-.2-.11,0,.11,0a2.4,2.4,0,0,0-.13-1.82" transform="translate(0.03)"/><path class="cls-1" d="M147.26,180.67a3.67,3.67,0,0,0,1.15-1.59l.07-.23.08-.22-.47,0a3.94,3.94,0,0,0-3.14.88,2.28,2.28,0,0,0-.62,1.14,2.14,2.14,0,0,0-.05.51v.32l.31,0v0a3.7,3.7,0,0,0,2.65-.81" transform="translate(0.03)"/><path class="cls-1" d="M174.36,15.05a3.43,3.43,0,0,0,1.7.73l.21,0,.22,0-.07-.43a3.74,3.74,0,0,0-1.45-2.7,2.12,2.12,0,0,0-1.17-.34,1.64,1.64,0,0,0-.48.06l-.15,0-.14,0,.05.29.16,0-.16,0a3.44,3.44,0,0,0,1.28,2.27" transform="translate(0.03)"/><path class="cls-1" d="M28.28,17.86a3.38,3.38,0,0,0,1.7.72l.22,0,.22,0-.07-.43a3.76,3.76,0,0,0-1.46-2.71,2.13,2.13,0,0,0-1.16-.33,2.74,2.74,0,0,0-.49.05l-.14,0-.14,0,0,.29.17,0-.17,0a3.52,3.52,0,0,0,1.28,2.27" transform="translate(0.03)"/><path class="cls-1" d="M16.25,24.88a2,2,0,0,0-.24,1v.24l.24-.08A2,2,0,0,0,17.61,25a1.19,1.19,0,0,0,.08-.67,1.41,1.41,0,0,0-.07-.27l0-.07,0-.08-.15.06,0,.09,0-.09a1.93,1.93,0,0,0-1.14.91" transform="translate(0.03)"/><path class="cls-1" d="M178.87,21.91a5.17,5.17,0,0,0,2.67-.9l.28-.19.27-.2-.52-.42c-1.57-1.27-3-1.83-4.4-1.61a3.34,3.34,0,0,0-1.68.81A2.74,2.74,0,0,0,175,20l-.12.19-.12.19.35.29.16-.2-.16.2a5.31,5.31,0,0,0,3.76,1.29" transform="translate(0.03)"/><path class="cls-1" d="M144.08,95.61a3.64,3.64,0,0,0,1.45.34h.56l-.14-.42a3.77,3.77,0,0,0-1.86-2.45,2.27,2.27,0,0,0-.86-.17,2.13,2.13,0,0,0-.82.15l-.14.07-.13.06.09.28a3.39,3.39,0,0,0,1.85,2.16" transform="translate(0.03)"/><path class="cls-1" d="M157.18,74.46a3.71,3.71,0,0,0,2.23,2.11,2.31,2.31,0,0,0,.52.06,2.16,2.16,0,0,0,1.14-.32l.12-.08.13-.09-.14-.26a3.49,3.49,0,0,0-1.68-1.65,3.63,3.63,0,0,0-1.48-.31,2.66,2.66,0,0,0-.61.06l-.22,0-.22,0Z" transform="translate(0.03)"/><path class="cls-1" d="M94.79,5.06a4.85,4.85,0,0,0,3.66-.51A5.35,5.35,0,0,0,99.86,3.4l1-1.22L99.4,1.56A9.39,9.39,0,0,0,98,1.09a4.32,4.32,0,0,0-3.47.4,3.35,3.35,0,0,0-1.41,1.79l-.31,1,1,.43a6.56,6.56,0,0,0,1,.34" transform="translate(0.03)"/><path class="cls-1" d="M139.38,168.8a6.74,6.74,0,0,0-4.72,1.87,7.34,7.34,0,0,0-1.5,2l-.9,1.91,2.08.35a12,12,0,0,0,2,.18,5.93,5.93,0,0,0,4.49-1.66,4.63,4.63,0,0,0,1.3-2.84l.08-1.41-1.39-.25a8,8,0,0,0-1.44-.14" transform="translate(0.03)"/><path class="cls-1" d="M13.41,131.35l.06-.14.34-.67a4.31,4.31,0,0,0,.33-.81,4.42,4.42,0,0,0,.18-1.2A4.36,4.36,0,0,0,13,125.46l-1-.9-.59,1.21a6.39,6.39,0,0,0-.45,1.12,4.8,4.8,0,0,0-.21,1.32,3.1,3.1,0,0,0,.65,1.95,2.72,2.72,0,0,0,1.19.88Z" transform="translate(0.03)"/><path class="cls-1" d="M34,12.81a5.29,5.29,0,0,0,3.71-1.47,5.92,5.92,0,0,0,1.19-1.56l.72-1.54L37.92,8a9.93,9.93,0,0,0-1.57-.14,4.76,4.76,0,0,0-3.55,1.3,3.72,3.72,0,0,0-1,2.25l-.06,1.13,1.12.21a6.24,6.24,0,0,0,1.13.1" transform="translate(0.03)"/><path class="cls-1" d="M122.77,3.76a6.18,6.18,0,0,0,3.59,1.35A3.55,3.55,0,0,0,129.08,4l.73-.87-.9-.91a8.59,8.59,0,0,0-1-.85A6.55,6.55,0,0,0,124,0a5.67,5.67,0,0,0-2.38.48L120,1.23l1.37,1.35a12.91,12.91,0,0,0,1.37,1.18" transform="translate(0.03)"/><path class="cls-1" d="M13.1,54a10.66,10.66,0,0,0,1.13,1l.1-.13-.1.13a5.07,5.07,0,0,0,3,1.11,2.92,2.92,0,0,0,2.25-.95l.62-.74-.76-.77a6.75,6.75,0,0,0-.82-.7,5.39,5.39,0,0,0-3.23-1.09,5,5,0,0,0-2,.39l-1.34.64Z" transform="translate(0.03)"/><path class="cls-1" d="M73.19,174.94l-.1.14.1-.14a4.74,4.74,0,0,0-2.82-.95,4.17,4.17,0,0,0-1.73.35l-1.2.56,1,1h0a10.3,10.3,0,0,0,1,.84,4.45,4.45,0,0,0,2.59,1,2.58,2.58,0,0,0,2-.84l.54-.66-.68-.68a6.64,6.64,0,0,0-.7-.61" transform="translate(0.03)"/><path class="cls-1" d="M133.37,13l.12.18.14-.17.38-.45c.15-.16.28-.33.41-.49a9.68,9.68,0,0,0,2.5-5.84A5.22,5.22,0,0,0,134.78,2h0l-.32-.21-.13-.08-.34.4A8.74,8.74,0,0,0,131.69,8,8.33,8.33,0,0,0,133,12.56ZM134.14,4l.41-.63L135,4a3.86,3.86,0,0,1,.65,1.63,3.82,3.82,0,0,1,.06.68,7.45,7.45,0,0,1-1.5,4.08l-.58.86-.32-1a7.45,7.45,0,0,1-.37-2.31A7.1,7.1,0,0,1,134.14,4L134,3.87Z" transform="translate(0.03)"/><path class="cls-1" d="M56.1,112.12l.44.37.17.14.34-.73a12.34,12.34,0,0,0,1.35-5.16,6.11,6.11,0,0,0-.49-2.49A5.18,5.18,0,0,0,55,101.49l-.36-.12-.14,0-.23.47a9.3,9.3,0,0,0-1,4,8.45,8.45,0,0,0,2.81,6.28m-1.21-8.59.23-.71.57.48a3.86,3.86,0,0,1,1.09,1.44,5.06,5.06,0,0,1,.39,2,9.14,9.14,0,0,1-.55,2.93l-.33,1-.57-.87a7.27,7.27,0,0,1-1.2-3.94,7.71,7.71,0,0,1,.37-2.32l-.16,0Z" transform="translate(0.03)"/><path class="cls-1" d="M148.54,124.3l-.11.13.11-.13-.46-.36-.18-.13-.31.73a12.83,12.83,0,0,0-1.17,4.93,6.21,6.21,0,0,0,.59,2.76,5.14,5.14,0,0,0,3,2.65l.38.11.13,0,.22-.49a9.35,9.35,0,0,0,.83-3.77,8.52,8.52,0,0,0-3-6.47m-.89,5.18a9.9,9.9,0,0,1,.44-2.72l.3-1,.6.85a7.2,7.2,0,0,1,1.35,4.15,7.63,7.63,0,0,1-.3,2.08l-.2.72-.59-.46a3.88,3.88,0,0,1-1.13-1.41,5,5,0,0,1-.47-2.21" transform="translate(0.03)"/><path class="cls-1" d="M170,171.87l-.16-.06.16.06.21-.55.08-.2-.8-.09a13,13,0,0,0-5.05.33,6.38,6.38,0,0,0-2.47,1.37,5.16,5.16,0,0,0-1.65,3.65v.54l.53.06a9.51,9.51,0,0,0,3.85-.31,8.47,8.47,0,0,0,5.29-4.8m-5.21.67a10,10,0,0,1,2.73-.37h1L168,173a7.21,7.21,0,0,1-3.56,2.51,7.75,7.75,0,0,1-2.08.33h-.75l.27-.7a4,4,0,0,1,1-1.49,5.13,5.13,0,0,1,2-1.1" transform="translate(0.03)"/><path class="cls-1" d="M27.1,116.64h0a9.3,9.3,0,0,0-1,4A8.46,8.46,0,0,0,28.94,127l.45.38.17.14.33-.73a12.37,12.37,0,0,0,1.36-5.16,6.12,6.12,0,0,0-.5-2.49,5.25,5.25,0,0,0-2.91-2.77l-.37-.11-.14,0Zm.26,4a7.7,7.7,0,0,1,.37-2.31l.23-.72.58.48a4,4,0,0,1,1.08,1.45,4.89,4.89,0,0,1,.39,2,9.38,9.38,0,0,1-.54,2.93l-.34,1-.56-.88a7.16,7.16,0,0,1-1.21-3.94" transform="translate(0.03)"/><polygon class="cls-1" points="11.63 82.73 11.63 82.73 11.63 82.73 11.63 82.73"/><path class="cls-1" d="M12.7,93.36h0l.45.37.17.14.34-.72A12.57,12.57,0,0,0,15,88a6.17,6.17,0,0,0-.5-2.5,5.18,5.18,0,0,0-2.91-2.76l-.37-.12-.14,0-.23.48a9.23,9.23,0,0,0-1,4,8.52,8.52,0,0,0,2.81,6.28m-1.58-6.27a7.71,7.71,0,0,1,.37-2.32l.23-.71.58.48A3.91,3.91,0,0,1,13.38,86a4.89,4.89,0,0,1,.39,2,9.38,9.38,0,0,1-.54,2.93l-.33,1L12.33,91a7.22,7.22,0,0,1-1.21-3.94" transform="translate(0.03)"/><path class="cls-1" d="M83.55,7a8.71,8.71,0,0,0,6.21-2.75l.38-.45.14-.16-.73-.35a12.24,12.24,0,0,0-5.22-1.4,5.48,5.48,0,0,0-4.12,1.62,4.62,4.62,0,0,0-1.09,1.73L79,5.64l0,.13.48.24a9.25,9.25,0,0,0,4.12,1M80.93,4.59a4.25,4.25,0,0,1,3.4-1.44,9.32,9.32,0,0,1,3,.57l1,.34-.87.56A7.16,7.16,0,0,1,83.55,5.8a7.57,7.57,0,0,1-2.4-.41l-.71-.24Z" transform="translate(0.03)"/><path class="cls-1" d="M167.13,73.81A4.62,4.62,0,0,0,166,75.55l-.12.36,0,.14.48.24a9.38,9.38,0,0,0,4.12,1,8.63,8.63,0,0,0,6.21-2.76l.38-.44.14-.17-.73-.34a12.24,12.24,0,0,0-5.22-1.4,5.45,5.45,0,0,0-4.12,1.61m7.22,1.09a7.16,7.16,0,0,1-3.88,1.18,7.61,7.61,0,0,1-2.4-.41l-.71-.24.49-.57a4.28,4.28,0,0,1,3.4-1.43,9.32,9.32,0,0,1,3,.57l1,.34Z" transform="translate(0.03)"/><path class="cls-1" d="M22.92,136.49a12.42,12.42,0,0,0-5.22-1.4,5.5,5.5,0,0,0-4.11,1.62,5.09,5.09,0,0,0-1.11,1.73l-.12.37,0,.14.49.24a9.34,9.34,0,0,0,4.11,1,8.72,8.72,0,0,0,6.21-2.76l.38-.44.14-.17ZM20.8,137.8A7.12,7.12,0,0,1,16.91,139a7.49,7.49,0,0,1-2.39-.4l-.71-.24.48-.57a4.3,4.3,0,0,1,3.41-1.43,9.22,9.22,0,0,1,3,.57l1,.34Z" transform="translate(0.03)"/><path class="cls-1" d="M42.3,165.27a5.15,5.15,0,0,0-3.49,1.35l-.27.27-.1.11.32.42A8.5,8.5,0,0,0,45.67,171a8.9,8.9,0,0,0,3.12-.56h0l.54-.23.2-.09-.49-.63c-2.19-2.78-4.45-4.22-6.74-4.22m4.26,4.61,0-.16c-.31,0-.6.05-.87.05a7,7,0,0,1-5.08-2.14l-.53-.52.68-.3a4,4,0,0,1,1.56-.31c1.45,0,3,.78,4.55,2.36l.73.75-1,.11Z" transform="translate(0.03)"/><path class="cls-1" d="M15.66,36.77h.21L18,37l1.07,13.2L31.57,51.3l4-12.83,1.43.12.2-.23a5,5,0,0,0,1.11-3.2,6.4,6.4,0,0,0-1.59-4.09,14.22,14.22,0,0,1-1.86-3.54A15.51,15.51,0,0,0,33,24a6.43,6.43,0,0,0-3.64-2.37,10.92,10.92,0,0,0-2.68-.37,6.24,6.24,0,0,0-4,1.3,5.92,5.92,0,0,0-2,4.82c0,.2,0,.41,0,.63h0l.07.74-.53,0a5.11,5.11,0,0,0-3.74,1.57A6.92,6.92,0,0,0,15,35a8.36,8.36,0,0,0,.08,1.23.61.61,0,0,0,.61.52M30.69,50,20.2,49l-1-12,15.1,1.28ZM17.42,31.17A4.13,4.13,0,0,1,20.61,30h.62l.15.22a3.75,3.75,0,0,0,.94,1,6.07,6.07,0,0,0,3.6,1,9.2,9.2,0,0,0,1.88-.18h0a.61.61,0,0,0,.48-.6v-.13a.63.63,0,0,0-.6-.49h0l-.11,0h0a8.24,8.24,0,0,1-1.61.16h0a4.86,4.86,0,0,1-2.87-.76,3,3,0,0,1-1.12-2.35c0-.19,0-.37,0-.55a4.79,4.79,0,0,1,1.54-3.88,5.08,5.08,0,0,1,3.24-1,9.45,9.45,0,0,1,2.38.33,5.24,5.24,0,0,1,3,2A15.16,15.16,0,0,1,33.75,28a15.4,15.4,0,0,0,2,3.81,5.28,5.28,0,0,1,1.33,3.31A4,4,0,0,1,36.65,37l-.16.29L16.21,35.59V35a5.53,5.53,0,0,1,1.21-3.81" transform="translate(0.03)"/><path class="cls-1" d="M55.59,114.78h0a1.3,1.3,0,0,0-2.2.92,1.31,1.31,0,0,0,.39.91h0a1.42,1.42,0,0,0,.9.37,1.29,1.29,0,0,0,.91-.39h0a1.23,1.23,0,0,0,.39-.9,1.26,1.26,0,0,0-.38-.91" transform="translate(0.03)"/><path class="cls-1" d="M57,87.34h0a1.29,1.29,0,0,0-1.81,1.83h0a1.35,1.35,0,0,0,.91.37,1.27,1.27,0,0,0,.9-.38h0a1.27,1.27,0,0,0,0-1.81" transform="translate(0.03)"/><path class="cls-1" d="M21.25,141.89h0a1.33,1.33,0,0,0-1.82,0l.12.12-.12-.12a1.32,1.32,0,0,0,0,1.83h0a1.37,1.37,0,0,0,.92.37,1.29,1.29,0,0,0,.9-.38h0a1.22,1.22,0,0,0,.37-.9,1.25,1.25,0,0,0-.37-.91" transform="translate(0.03)"/><path class="cls-1" d="M23.21,161.9h0a1.27,1.27,0,0,0-.9-.36,1.31,1.31,0,0,0-.91.36l.12.12-.12-.12a1.21,1.21,0,0,0-.37.92,1.28,1.28,0,0,0,.37.91h0a1.41,1.41,0,0,0,.92.38,1.28,1.28,0,0,0,.89-.39h0a1.3,1.3,0,0,0,0-1.82" transform="translate(0.03)"/><path class="cls-1" d="M80.16,33.64h0a1.9,1.9,0,0,0,1.39.59,1.94,1.94,0,0,0,1.37-.56h0a1.93,1.93,0,0,0,.58-1.39,1.91,1.91,0,0,0-.57-1.38h0a2,2,0,0,0-1.38-.55,1.94,1.94,0,0,0-1.36.54h0a2,2,0,0,0-.58,1.4,1.91,1.91,0,0,0,.55,1.36" transform="translate(0.03)"/><path class="cls-1" d="M186.61,78.1a1.3,1.3,0,0,0-.91-.37,1.28,1.28,0,0,0-.91,2.18h0a1.27,1.27,0,0,0,1.81,0h0A1.23,1.23,0,0,0,187,79a1.31,1.31,0,0,0-.39-.91" transform="translate(0.03)"/><path class="cls-1" d="M182.63,23.17a.85.85,0,0,0-.58-.23.8.8,0,0,0-.57.23.82.82,0,0,0-.23.58.76.76,0,0,0,.23.56h0a.81.81,0,0,0,1.15,0h0a.8.8,0,0,0,.24-.56.83.83,0,0,0-.24-.58" transform="translate(0.03)"/><path class="cls-1" d="M24.4,17.39a.85.85,0,0,0-.58-.23.83.83,0,0,0-.57.23A.79.79,0,0,0,23,18a.77.77,0,0,0,.23.57h0a.83.83,0,0,0,.58.24.78.78,0,0,0,.56-.24h0a.82.82,0,0,0,.24-.57.86.86,0,0,0-.24-.58" transform="translate(0.03)"/><path class="cls-1" d="M12.78,37.92a.82.82,0,0,0-.58-.23.85.85,0,0,0-.57.23.83.83,0,0,0-.23.58.81.81,0,0,0,.23.57h0a.81.81,0,0,0,1.15,0h0A.82.82,0,0,0,13,38.5a.84.84,0,0,0-.24-.58" transform="translate(0.03)"/><path class="cls-1" d="M147.73,145.37h0a1.25,1.25,0,0,0-.9-.36,1.25,1.25,0,0,0-1.29,1.27,1.24,1.24,0,0,0,.37.9h0a1.26,1.26,0,0,0,.91.39,1.23,1.23,0,0,0,.9-.39h0a1.27,1.27,0,0,0,0-1.81" transform="translate(0.03)"/><path class="cls-1" d="M167.44,106.47h0a1.94,1.94,0,0,0-1.39-.56,2,2,0,0,0-1.38.55,1.94,1.94,0,0,0-.57,1.39,1.87,1.87,0,0,0,.55,1.36h0a1.9,1.9,0,0,0,1.38.59,1.93,1.93,0,0,0,1.38-.57h0a1.94,1.94,0,0,0,0-2.77" transform="translate(0.03)"/><path class="cls-1" d="M184.6,99.55h0a2,2,0,0,0-2.77,0,1.94,1.94,0,0,0-.57,1.39,1.9,1.9,0,0,0,.55,1.36h0a1.93,1.93,0,0,0,2.76,0h0a1.91,1.91,0,0,0,.6-1.38,2,2,0,0,0-.58-1.38" transform="translate(0.03)"/><path class="cls-1" d="M147.47,3.12h0a2,2,0,0,0-2.77,0,1.94,1.94,0,0,0-.57,1.39,1.9,1.9,0,0,0,.55,1.36h0a1.93,1.93,0,0,0,2.76,0h0a1.91,1.91,0,0,0,.6-1.38,1.93,1.93,0,0,0-.58-1.38" transform="translate(0.03)"/><path class="cls-1" d="M151.21,141.26h0a1.32,1.32,0,0,0-1.81,0h0a1.32,1.32,0,0,0-.38.91,1.26,1.26,0,0,0,.38.9h0a1.28,1.28,0,0,0,.91.38,1.26,1.26,0,0,0,.9-.38h0a1.26,1.26,0,0,0,0-1.81" transform="translate(0.03)"/><path class="cls-1" d="M70.44,179.5h0a1.33,1.33,0,0,0-1.82,0h0a1.28,1.28,0,0,0,0,1.82h0a1.28,1.28,0,0,0,1.82,0h0a1.26,1.26,0,0,0,0-1.82" transform="translate(0.03)"/><path class="cls-1" d="M136.36,139.28h0a1.35,1.35,0,0,0,.91.37,1.3,1.3,0,0,0,.91-.38,1.28,1.28,0,0,0,.37-.9,1.26,1.26,0,0,0-1.28-1.28,1.31,1.31,0,0,0-.91.36h0a1.25,1.25,0,0,0-.37.92,1.32,1.32,0,0,0,.37.91" transform="translate(0.03)"/><path class="cls-1" d="M124.31,148.31h0a1.33,1.33,0,0,0,.91.37,1.27,1.27,0,0,0,.9-.38,1.3,1.3,0,0,0,.37-.91,1.29,1.29,0,0,0-.37-.91,1.37,1.37,0,0,0-.91-.37,1.24,1.24,0,0,0-.9.37h0a1.29,1.29,0,0,0-.37.91,1.33,1.33,0,0,0,.37.92Z" transform="translate(0.03)"/><path class="cls-1" d="M99,152.5h0a1.33,1.33,0,0,0,.91.37,1.28,1.28,0,0,0,.9-.39,1.25,1.25,0,0,0,.38-.9,1.26,1.26,0,0,0-1.29-1.28,1.3,1.3,0,0,0-.9.36h0a1.29,1.29,0,0,0,0,1.83" transform="translate(0.03)"/><path class="cls-1" d="M85.59,181h0a.88.88,0,0,0,.61.25.85.85,0,0,0,.62-.26.9.9,0,0,0,.25-.61.85.85,0,0,0-.87-.87.85.85,0,0,0-.61.25h0a.85.85,0,0,0-.26.62.89.89,0,0,0,.26.62" transform="translate(0.03)"/><polygon class="cls-1" points="100.87 150.67 100.87 150.67 100.88 150.67 100.87 150.67"/><path class="cls-1" d="M104.21,174a1.3,1.3,0,0,0,.37-.91,1.29,1.29,0,0,0-.37-.91,1.26,1.26,0,0,0-.91-.37,1.29,1.29,0,0,0-.9.36h0a1.29,1.29,0,0,0-.37.91,1.33,1.33,0,0,0,.37.92h0a1.33,1.33,0,0,0,.91.37,1.27,1.27,0,0,0,.9-.38" transform="translate(0.03)"/><path class="cls-1" d="M136.15,177.86a1.26,1.26,0,0,0-.9.36h0a1.25,1.25,0,0,0-.37.92,1.28,1.28,0,0,0,.37.91h0a1.33,1.33,0,0,0,.91.37,1.29,1.29,0,0,0,.9-2.2,1.29,1.29,0,0,0-.91-.36" transform="translate(0.03)"/><path class="cls-1" d="M140.5,161.75l-.13.11.13-.11a1.3,1.3,0,0,0-1-.47,1.28,1.28,0,0,0-.82.3,1.3,1.3,0,0,0-.47,1,1.28,1.28,0,0,0,.3.82l3,3.69a1.29,1.29,0,0,0,2.28-.82,1.27,1.27,0,0,0-.29-.82Z" transform="translate(0.03)"/><path class="cls-1" d="M34.73,63.13h0a1.26,1.26,0,0,0,.89.37,1.3,1.3,0,0,0,1.3-1.29,1.3,1.3,0,0,0-.38-.91,1.31,1.31,0,0,0-.91-.36,1.29,1.29,0,0,0-.91.36,1.25,1.25,0,0,0-.37.91,1.33,1.33,0,0,0,.37.92Z" transform="translate(0.03)"/><path class="cls-1" d="M28.85,56.39h0a1.27,1.27,0,0,0,1.81,0h0a1.27,1.27,0,0,0,.38-.9,1.3,1.3,0,0,0-.38-.91,1.33,1.33,0,0,0-1.82,0,1.3,1.3,0,0,0,0,1.82" transform="translate(0.03)"/><path class="cls-1" d="M106.5,30.3h0a2,2,0,0,0,1.37.56,2,2,0,0,0,1.37-.57h0a2,2,0,0,0,0-2.77h0a2,2,0,0,0-1.38-.56,2,2,0,0,0-1.37.54h0a1.92,1.92,0,0,0-.58,1.4,2,2,0,0,0,.58,1.4" transform="translate(0.03)"/><path class="cls-1" d="M144.2,50.79h0a1.28,1.28,0,0,0,.91.38,1.31,1.31,0,0,0,.91-.38,1.3,1.3,0,0,0,.38-.91A1.31,1.31,0,0,0,146,49h0a1.29,1.29,0,0,0-.91-.36,1.27,1.27,0,0,0-.9.36h0a1.25,1.25,0,0,0,0,1.81" transform="translate(0.03)"/><path class="cls-1" d="M161.36,26.07h0a1.07,1.07,0,0,0,.77.33,1.08,1.08,0,0,0,.77-.33,1.11,1.11,0,0,0,.33-.77,1.08,1.08,0,0,0-.33-.77h0a1.14,1.14,0,0,0-.78-.3,1.07,1.07,0,0,0-.76.3h0a1.1,1.1,0,0,0-.32.77,1.06,1.06,0,0,0,.32.77" transform="translate(0.03)"/><path class="cls-1" d="M169.1,11.15h0a1.26,1.26,0,0,0,.91.38,1.33,1.33,0,0,0,1.29-1.29A1.26,1.26,0,0,0,170,9a1.26,1.26,0,0,0-.9.35h0a1.27,1.27,0,0,0,0,1.82" transform="translate(0.03)"/><path class="cls-1" d="M146,49Z" transform="translate(0.03)"/><path class="cls-1" d="M146.83,45a6.92,6.92,0,0,0,5,6.62l.68.2-.41.58a6.88,6.88,0,0,0,5.4,10.87l.61,0-.13.59a6.9,6.9,0,1,0,13.65,1.42,6.36,6.36,0,0,0-.12-1.21l-.09-.5.5-.09a6.88,6.88,0,0,0,3-12.17l-.81-.65,1-.23a6.31,6.31,0,1,0-5.94-10.51l.12.11-.12-.11-.31.32-.35-.27a6.77,6.77,0,0,0-8.78.64l-.39.39-.35-.42a6.89,6.89,0,0,0-12.2,4.4m17.71-5.32a5.77,5.77,0,1,1-4.07,1.69,5.74,5.74,0,0,1,4.07-1.69m6.12,11.15a5.91,5.91,0,1,1-4.16,1.73,5.85,5.85,0,0,1,4.16-1.73m-5.94,20.36a5.91,5.91,0,0,1-5.89-5.89,5.76,5.76,0,0,1,.34-1.95l.09-.24.25-.07a7,7,0,0,0,4.15-3.18l.46-.79.42.81A6.86,6.86,0,0,0,170,63.56l.36,0,.08.35a5.55,5.55,0,0,1,.18,1.33,5.91,5.91,0,0,1-5.89,5.89M153.77,52l.2-.17a5.88,5.88,0,0,1,9.62,4.54,5.89,5.89,0,1,1-9.88-4.3l.06-.06Zm9.44.12,1,.06.23,0h.91l-.5.76c-.06.09-.11.18-.16.27l-.46.78-.42-.81c-.05-.09-.1-.19-.16-.28Zm-4.62-9.93a6.72,6.72,0,0,0,0,6.56l.46.81-1-.07h-.37a6.79,6.79,0,0,0-4,1.29l-.15.1h-.18a5.88,5.88,0,0,1-3.81-10,5.85,5.85,0,0,1,9,.83l.18.26Zm11-1.24.3-.31A5.35,5.35,0,0,1,173.75,39a5.3,5.3,0,1,1-2.83,9.78l-.36-.23.17-.4a6.68,6.68,0,0,0-.84-6.84Z" transform="translate(0.03)"/><path class="cls-1" d="M183,62.06v0a6.26,6.26,0,1,0,6.26,6.26A6.27,6.27,0,0,0,183,62.06m0,11.29a5,5,0,1,1,3.56-1.47A5,5,0,0,1,183,73.35" transform="translate(0.03)"/><path class="cls-1" d="M186.07,49.36l-.32.4-.39-.32A5.69,5.69,0,0,0,181.77,48a3.41,3.41,0,0,0-3.41,2.63,4.91,4.91,0,0,0-.18,1.3c0,2.53,1.93,4.8,3.86,6.47a25.81,25.81,0,0,0,4.09,2.85l.2.11.09.05.28-.17a15.31,15.31,0,0,0,4.63-4.61,10.6,10.6,0,0,0,1.91-5.48V51a3.73,3.73,0,0,0-1.86-3.31,3.39,3.39,0,0,0-1.72-.46,4.91,4.91,0,0,0-3.59,2.1m-4.3-.21a5.07,5.07,0,0,1,3.63,1.94l.38.45.16.18.4-.73a6.64,6.64,0,0,1,1.29-1.64,3.15,3.15,0,0,1,2-1,2.4,2.4,0,0,1,1.17.32,2.54,2.54,0,0,1,1.26,2.34v.1a9.19,9.19,0,0,1-1.58,4.59,14.61,14.61,0,0,1-3.86,4.16l-.27.19-.28-.17a24.29,24.29,0,0,1-3.86-2.86c-1.55-1.45-2.92-3.28-2.92-5.13a3.76,3.76,0,0,1,.14-1,2.27,2.27,0,0,1,2.31-1.8" transform="translate(0.03)"/><path class="cls-1" d="M157.88,66.63a2.57,2.57,0,0,0-1.31-2.33,2.49,2.49,0,0,0-1.22-.33A3.28,3.28,0,0,0,153,65.2l-.42.48-.52-.38a4,4,0,0,0-2.26-.8,2.41,2.41,0,0,0-2.42,1.85,3.43,3.43,0,0,0-.13.94c0,1.75,1.27,3.29,2.58,4.44a17.68,17.68,0,0,0,3,2.1l.13.06.08,0,.21-.12a10.8,10.8,0,0,0,3.24-3.25,7.49,7.49,0,0,0,1.36-3.85Zm-4.44,6.08-.39.28-.4-.25a15.78,15.78,0,0,1-2.72-2.1,5.16,5.16,0,0,1-1.82-3.37,2.86,2.86,0,0,1,.09-.7,1.57,1.57,0,0,1,1.62-1.24,3.48,3.48,0,0,1,2.53,1.35l.23.27.16.19.29-.53a5.23,5.23,0,0,1,.68-.92,2.38,2.38,0,0,1,1.64-.89,1.62,1.62,0,0,1,.81.22h0a1.78,1.78,0,0,1,.88,1.63v.07a6.56,6.56,0,0,1-1.05,3.1,10.28,10.28,0,0,1-2.56,2.89" transform="translate(0.03)"/><path class="cls-1" d="M186.44,45.39l.09-.14-.09.14.76.5.19-.89a25.58,25.58,0,0,0,.47-4.89,19.14,19.14,0,0,0-1.7-8.33,10.53,10.53,0,0,0-6.68-5.71l-.39-.12-.15,0-.21.52a14.16,14.16,0,0,0-.78,4.78c0,3.91,1.49,9.54,8.49,14.18m-7.28-14.17a13.74,13.74,0,0,1,.38-3.24l.14-.57.55.23a9.44,9.44,0,0,1,5.17,5.48,19.09,19.09,0,0,1,1.18,7,27,27,0,0,1-.15,2.83l-.09.9-.72-.55c-5.3-4.14-6.46-8.77-6.46-12.07" transform="translate(0.03)"/><path class="cls-1" d="M180.74,59.17h0a1.33,1.33,0,0,0-1.81,0,1.31,1.31,0,0,0-.39.92,1.29,1.29,0,1,0,2.21-.91h0" transform="translate(0.03)"/><path class="cls-1" d="M191.37,62.7a1.29,1.29,0,0,0-.91-.36,1.27,1.27,0,0,0-.9.36h0a1.29,1.29,0,0,0-.37.91,1.26,1.26,0,0,0,.37.9h0a1.26,1.26,0,0,0,.91.38,1.29,1.29,0,0,0,.9-.38h0a1.23,1.23,0,0,0,.39-.9,1.29,1.29,0,0,0-.39-.91" transform="translate(0.03)"/><path class="cls-1" d="M107.9,3.13h0a1.44,1.44,0,0,0,1,.45A1.51,1.51,0,0,0,110,3.13h0a1.5,1.5,0,0,0,.43-1A1.5,1.5,0,0,0,107.91,1a1.5,1.5,0,0,0-.44,1.06A1.44,1.44,0,0,0,107.9,3.13Z" transform="translate(0.03)"/><path class="cls-1" d="M151.54,113.47h0a2,2,0,0,0-2.74,0h0a1.93,1.93,0,0,0-.59,1.4,1.88,1.88,0,0,0,.57,1.36h0a2,2,0,0,0,1.4.59,1.88,1.88,0,0,0,1.36-.57h0a1.89,1.89,0,0,0,.58-1.38,1.92,1.92,0,0,0-.57-1.39" transform="translate(0.03)"/><path class="cls-1" d="M29.55,103a1.27,1.27,0,0,0-.91-.36,1.25,1.25,0,0,0-.91.36,1.29,1.29,0,0,0-.37.91,1.24,1.24,0,0,0,.37.9h0a1.27,1.27,0,0,0,.92.39,1.22,1.22,0,0,0,.89-.39h0a1.27,1.27,0,0,0,0-1.81" transform="translate(0.03)"/><path class="cls-1" d="M40.66,130.18a1.26,1.26,0,0,0-.9-.37,1.28,1.28,0,0,0-.92.37,1.29,1.29,0,0,0,0,1.81h0a1.25,1.25,0,0,0,.91.39,1.23,1.23,0,0,0,.9-.39h0a1.26,1.26,0,0,0,0-1.81" transform="translate(0.03)"/><path class="cls-1" d="M77.06,143.42a2,2,0,0,0-2.77,0l.12.12-.12-.12a2,2,0,0,0-.58,1.38,1.89,1.89,0,0,0,.57,1.37h0a1.94,1.94,0,0,0,2.76,0h0a1.9,1.9,0,0,0,.59-1.39,2,2,0,0,0-.58-1.38" transform="translate(0.03)"/><path class="cls-1" d="M82.39,161.84h0a1.94,1.94,0,0,0,2.76,0h0a1.93,1.93,0,0,0,.57-1.39,1.9,1.9,0,0,0-.56-1.38h0a1.94,1.94,0,0,0-1.37-.55h0a2,2,0,0,0-1.34.54h0a2,2,0,0,0,0,2.76" transform="translate(0.03)"/><path class="cls-1" d="M128.1,171.33a1.33,1.33,0,0,0-1.82,0h0a1.25,1.25,0,0,0-.37.91,1.22,1.22,0,0,0,.37.9h0a1.3,1.3,0,0,0,.92.38,1.25,1.25,0,0,0,.89-.38h0a1.24,1.24,0,0,0,.37-.9,1.29,1.29,0,0,0-.37-.91" transform="translate(0.03)"/><path class="cls-1" d="M153.93,108.46h0a2,2,0,0,0,0-2.78,2,2,0,0,0-1.38-.56,2,2,0,0,0-1.38.55h0a2,2,0,0,0-.58,1.4,1.88,1.88,0,0,0,.56,1.36h0a2,2,0,0,0,1.4.59,1.89,1.89,0,0,0,1.36-.57" transform="translate(0.03)"/><path class="cls-1" d="M179.7,115.7a2,2,0,0,0-2.76,0h0a1.94,1.94,0,0,0-.58,1.4,1.91,1.91,0,0,0,.56,1.36h0a1.93,1.93,0,0,0,1.4.59,1.87,1.87,0,0,0,1.35-.56h0a1.87,1.87,0,0,0,.59-1.38,2,2,0,0,0-.57-1.39" transform="translate(0.03)"/><path class="cls-1" d="M190.81,126.46a1.44,1.44,0,0,0-2,0,1.44,1.44,0,0,0-.41,1,1.36,1.36,0,0,0,.39,1h0a1.39,1.39,0,0,0,1,.43,1.37,1.37,0,0,0,1-.41h0a1.41,1.41,0,0,0,0-2" transform="translate(0.03)"/><path class="cls-1" d="M188.8,146.4a1.37,1.37,0,0,0-1-.4,1.42,1.42,0,0,0-1,.39h0a1.41,1.41,0,0,0-.41,1,1.36,1.36,0,0,0,.39,1h0a1.39,1.39,0,0,0,2,0h0a1.4,1.4,0,0,0,0-2" transform="translate(0.03)"/><path class="cls-1" d="M179.89,164.5a1.44,1.44,0,0,0-2,0h0a1.39,1.39,0,0,0-.42,1,1.36,1.36,0,0,0,.4,1h0a1.41,1.41,0,0,0,1,.42,1.33,1.33,0,0,0,1-.4h0a1.34,1.34,0,0,0,.42-1,1.41,1.41,0,0,0-.41-1" transform="translate(0.03)"/><path class="cls-1" d="M179.93,147.93h0a1.31,1.31,0,0,0,.91.39,1.26,1.26,0,0,0,.9-.39h0a1.24,1.24,0,0,0,.37-.9,1.29,1.29,0,0,0-.37-.91,1.27,1.27,0,0,0-.91-.36,1.3,1.3,0,0,0-.91.35h0a1.27,1.27,0,0,0-.37.91,1.24,1.24,0,0,0,.37.9" transform="translate(0.03)"/><path class="cls-1" d="M156.44,176.46a2,2,0,0,0-1.38-.56,2,2,0,0,0-1.38.55h0a2,2,0,0,0-.57,1.4,1.87,1.87,0,0,0,.55,1.36h0a2,2,0,0,0,1.4.59,1.87,1.87,0,0,0,1.35-.56h0a1.92,1.92,0,0,0,.58-1.39,1.94,1.94,0,0,0-.57-1.39" transform="translate(0.03)"/><path class="cls-1" d="M70,24.62l.11.12L70,24.62a1.27,1.27,0,0,0-.39.92,1.29,1.29,0,0,0,.38.9h0a1.31,1.31,0,0,0,.91.39,1.34,1.34,0,0,0,.9-.38,1.28,1.28,0,0,0-.91-2.19,1.29,1.29,0,0,0-.9.36" transform="translate(0.03)"/><path class="cls-1" d="M68.54,39.67Z" transform="translate(0.03)"/><path class="cls-1" d="M66.73,41.49h0a1.28,1.28,0,0,0,1.81,0,1.29,1.29,0,0,0,.38-.92,1.25,1.25,0,0,0-.38-.91,1.27,1.27,0,0,0-.9-.36,1.27,1.27,0,0,0-.92,2.18h0" transform="translate(0.03)"/><path class="cls-1" d="M49.44,65.43Z" transform="translate(0.03)"/><path class="cls-1" d="M47.62,65.44h0a1.32,1.32,0,0,0-.38.91,1.29,1.29,0,0,0,.38.9h0a1.26,1.26,0,0,0,1.81,0,1.27,1.27,0,0,0,.38-.91,1.24,1.24,0,0,0-.38-.91,1.25,1.25,0,0,0-.91-.36,1.28,1.28,0,0,0-.91.36" transform="translate(0.03)"/><path class="cls-1" d="M12.43,114.39Z" transform="translate(0.03)"/><path class="cls-1" d="M10.62,116.21a1.28,1.28,0,0,0,1.81,0,1.29,1.29,0,0,0,.38-.92,1.25,1.25,0,0,0-.38-.91,1.32,1.32,0,0,0-1.81,0h0a1.29,1.29,0,0,0-.39.91,1.26,1.26,0,0,0,.38.9h0" transform="translate(0.03)"/><path class="cls-1" d="M75,8h0a1.23,1.23,0,0,0,.9.39A1.26,1.26,0,0,0,76.86,8h0a1.28,1.28,0,0,0,.37-.9,1.24,1.24,0,0,0-.38-.91h0A1.3,1.3,0,0,0,76,5.79a1.28,1.28,0,0,0-.9.35h0a1.24,1.24,0,0,0-.38.91A1.28,1.28,0,0,0,75,8" transform="translate(0.03)"/><path class="cls-1" d="M42.77,6h0a1.22,1.22,0,0,0,.89.39A1.3,1.3,0,0,0,44.59,6h0a1.29,1.29,0,0,0,0-1.81h0a1.3,1.3,0,0,0-.91-.35,1.26,1.26,0,0,0-.9.35h0a1.29,1.29,0,0,0,0,1.81" transform="translate(0.03)"/><path class="cls-1" d="M178.18,98.47v-.42H169l2-1.51a11.68,11.68,0,0,0,4.7-9.39V80.44H152.2v5h-.84a4.19,4.19,0,1,0,0,8.38h2.94l.25.34a11.89,11.89,0,0,0,2.35,2.35l2,1.51h-9.23v.42a5.46,5.46,0,0,0,5.45,5.45h17.61a5.45,5.45,0,0,0,5.44-5.45M153,86.31h21.8v.84a10.9,10.9,0,0,1-21.8,0Zm0-5h21.8v4.19H153Zm-1.67,5h.84v.84a11.43,11.43,0,0,0,1,4.69l.51,1.18h-2.33a3.36,3.36,0,1,1,0-6.71m26.12,12.58-.4,1.12a4.63,4.63,0,0,1-4.34,3.07H155.13a4.63,4.63,0,0,1-4.35-3.07l-.4-1.12Z" transform="translate(0.03)"/><path class="cls-1" d="M175.69,143.29" transform="translate(0.03)"/><path class="cls-1" d="M188.37,133a12.92,12.92,0,0,0-1.74-5.2l-.15.09.15-.09a14.08,14.08,0,0,0-3.76-4.23,13.13,13.13,0,0,0-4.79-2.31c-.48-.12-1-.22-1.42-.32l-.59-.12h-3.31l-.22.06c-.24.06-.47.12-.7.16a13.36,13.36,0,0,0-7.37,3.84l-.2.22a.46.46,0,0,0-.09.27.51.51,0,0,0,.09.26,1.46,1.46,0,0,0,.21.25l3.79,3.79a3.23,3.23,0,0,1,.23.27l.85,1H159l-.14-1.13c-.06-.47-.12-.92-.17-1.38s-.08-.75-.11-1.12c-.07-.76-.14-1.55-.26-2.31h0a.71.71,0,0,0-.13-.24,1.51,1.51,0,0,0-.26-.24c-.72-.48-1.48-.93-2.21-1.37l-.42-.25c-.27-.16-1.31-.83-2.52-1.6-1-.66-2.2-1.42-2.91-1.86l-.14-.1-.48.75.15.09,2.38,1.54c1.84,1.19,4.11,2.67,4.81,3.06a1.81,1.81,0,0,1,.84.86,2.1,2.1,0,0,1,.16.89,5.16,5.16,0,0,0,.1.86c0,.2.06.39.08.58.07.58.12,1.16.17,1.73l.07.68v.47l-.45.11h0a.61.61,0,0,1-.23.05h-3.07l-.28,0-.13,0,0,.13a.76.76,0,0,0,0,.16v.11c0,.94.1,1.87.15,2.81l.07,1.24.58,10.42c0,.67.22,3.83.22,3.83l.35,6.32.09,1.54c0,.8.09,1.6.13,2.4.09,1.85.16,3.7.23,5.55v1c0,.17,0,.34,0,.51s0,.51,0,.77a.54.54,0,0,0,.07.19l.1.18.05.09h20.54l0-.1a1.59,1.59,0,0,0,.14-.76c0-1.9,0-3.56.11-5.07.08-1.91.18-3.81.29-5.72l0-1c0-.6.08-1.2.12-1.81s.07-1.12.1-1.67c.13-2.19.24-4.36.35-6.54,0-.52,0-1,.05-1.56s0-1.11.07-1.67c0-.39.07-.78.11-1.2l.06-.57.11-1.07.93.89.29.28,4.15,4.15a1,1,0,0,0,.58.32.87.87,0,0,0,.57-.34,14.76,14.76,0,0,0,1.11-1.33,12.88,12.88,0,0,0,2.25-4.47c.13-.49.25-1,.37-1.47l.18-.73v-3.51l0,0a.52.52,0,0,1-.08-.23m-20.53-5.11.48-.36a10,10,0,0,1,5-2.06l.59-.08v5.57H172.3l-.89,0a1.17,1.17,0,0,1-.79-.32c-.58-.56-1.15-1.13-1.74-1.71l-.13.12.13-.12Zm16.47,15.65-.38.4-1.8-1.84.27-.36a10.9,10.9,0,0,0,2.39-6.68,9.26,9.26,0,0,0-.08-1.28,10.33,10.33,0,0,0-4.18-7.23,9.44,9.44,0,0,0-5-2c-.41,0-.81,0-1.19,0a9.84,9.84,0,0,0-6.72,2.4l-.37.31-1.91-1.9.41-.37a12.84,12.84,0,0,1,8.6-3.21A13.29,13.29,0,0,1,187.55,135a12.6,12.6,0,0,1-3.24,8.52m-7-12.59h-2.51v-5.57l.6.08a9.94,9.94,0,0,1,4.86,2.06l.47.36-1,1c-.61.6-1.19,1.18-1.78,1.75a1,1,0,0,1-.63.31m6.56,3.64h-5.57V133c0-.28,0-.55,0-.82a1.16,1.16,0,0,1,.25-.83c.59-.61,1.19-1.21,1.8-1.82l1-1,.36.46a9.3,9.3,0,0,1,2.06,5Zm0,.93-.08.6a9.44,9.44,0,0,1-2.1,4.88l-.37.45-1-1-2-2.07a1,1,0,0,1-.28-.65v-2.23Zm-6.85,3.92-.09.87-.77-.49h0l-.16-.12h0c-.18-.18-.36-.35-.53-.53a6.52,6.52,0,0,0-4.15-1.92,5.58,5.58,0,0,0-.7,0,7,7,0,0,0-5,2.07A6,6,0,0,1,161.3,141h-.11a1.33,1.33,0,0,1-.68-.18,1.18,1.18,0,0,1-.53-.95c-.06-.44-.1-.87-.15-1.3l-.09-.83-.18-1.59-.27-2.42c0-.31,0-.63-.07-.95l0-.45,0-.56h18.34ZM155,135.21l0-.14-.25-3.32h3.52l1,9.29-1.05-1-.7-.69c-.46-.46-.89-.89-1.34-1.28a3,3,0,0,1-1.25-2.27,2.23,2.23,0,0,1,0-.5v-.07Zm20.73,32.17h-19.1v-2.8h19.1Zm1.18-23.68c0,.09,0,.18-.05.28a1.86,1.86,0,0,0-.05.27h0l-.35,6.37c0,.55-.06,1.11-.1,1.67,0,.74-.09,1.48-.12,2.21-.07,1.21-.12,2.42-.19,3.62s-.1,2.18-.16,3.27c0,.4-.05.8-.08,1.2l-.08,1H156.51l-.12-1.71c-.06-.91-.12-1.8-.18-2.7s-.13-2.06-.18-3.1l-.11-2c-.1-1.73-.2-3.46-.28-5.19,0-.66,0-1.31-.07-2,0-.46,0-.92,0-1.38,0-.74-.07-1.49-.12-2.24s-.11-1.6-.18-2.43l-.18-2.42,1.36,1.15.8.67a5.8,5.8,0,0,0,2,1.17l.06,0h0l.65.23-.07-.08a7.27,7.27,0,0,0,1,.16l.68,0a7.09,7.09,0,0,0,5.11-2.19,5.41,5.41,0,0,1,3.87-1.59,6,6,0,0,1,4.63,2.09l.58.53a3.08,3.08,0,0,1,1.18,2.42,4,4,0,0,1,0,.58l.17,0Z" transform="translate(0.03)"/><polygon class="cls-1" points="169.73 144.16 169.89 144.16 171.83 144.16 171.83 142.01 169.73 142.01 169.73 144.16"/><polygon class="cls-1" points="160.44 144.64 160.27 144.64 158.31 144.64 158.31 146.77 160.44 146.77 160.44 144.64"/><polygon class="cls-1" points="164.46 151.15 164.63 151.15 166.57 151.15 166.57 149 164.46 149 164.46 151.15"/><polygon class="cls-1" points="168.83 157.29 169 157.29 170.95 157.29 170.95 155.16 168.83 155.16 168.83 157.29"/><polygon class="cls-1" points="159.2 158.16 159.37 158.16 161.31 158.16 161.31 156.01 159.2 156.01 159.2 158.16"/><path class="cls-1" d="M62.75,36.83l.54-.09A2.21,2.21,0,0,0,65,35.31a2.33,2.33,0,0,0,.12-.73,2.21,2.21,0,0,0-1.46-2.08L47.46,26.78a2,2,0,0,0-.69-.12,2.26,2.26,0,0,0-2.12,1.46,2.22,2.22,0,0,0,.59,2.35l.77.71.56.19-1.18.54a7.09,7.09,0,0,1-1.89.57h0l-.11,0h0a4.84,4.84,0,0,0-1,.41A2.92,2.92,0,0,0,41,34.39L34.29,53.47h0a4.33,4.33,0,0,0,.42,3.33,3.79,3.79,0,0,0,2.06,1.64l15,5.43.13,0h0a6.31,6.31,0,0,0,1.42.15,6.21,6.21,0,0,0,2.73-.57,4.17,4.17,0,0,0,2.12-2.44l6-16.92a8.33,8.33,0,0,0,.45-2.45A2.72,2.72,0,0,0,64,39.76l-.25-.25a8.79,8.79,0,0,1-1.4-1.71l-.73-1.33,1.09.37Zm.47,7-6,16.92c-.52,1.48-1.89,2.33-3.84,2.34A6.28,6.28,0,0,1,52.21,63h-.05l-15-5.44a2.82,2.82,0,0,1-2-2.8,3.76,3.76,0,0,1,.11-.9v0L42,34.72a1.68,1.68,0,0,1,.74-.84,3.88,3.88,0,0,1,.81-.38l.09,0h0a8.85,8.85,0,0,0,4-1.75l1.17.39.12-.16,11.47,4v0l.66.22,0,.19c0,.07,0,.15,0,.22,0,1.51,1.22,2.72,2,3.51h0l.34.33.09.18a2.21,2.21,0,0,1,.18,1,7.5,7.5,0,0,1-.39,2.13M45.82,28.53a1,1,0,0,1,.91-.65,1,1,0,0,1,.32.06l16.18,5.73a1,1,0,0,1,.55.49,1.06,1.06,0,0,1,.09.42,1.25,1.25,0,0,1,0,.32,1,1,0,0,1-1.24.58L46.41,29.76a1,1,0,0,1-.65-.91.87.87,0,0,1,.06-.32l-.16-.06Z" transform="translate(0.03)"/><path class="cls-1" d="M43.68,33.47" transform="translate(0.03)"/><path class="cls-1" d="M188.28,96a3.91,3.91,0,0,1,.06-.68l-.16,0,.16,0a6.86,6.86,0,0,1,1.24-2.53A8.46,8.46,0,0,0,191,90.13a3.49,3.49,0,0,0,.12-.95c0-1.68-1.1-3-1.78-4.45a5,5,0,0,1,1.85-6.42.46.46,0,0,0,.24-.41.57.57,0,0,0-.13-.36.51.51,0,0,0-.36-.17.5.5,0,0,0-.26.08,6,6,0,0,0-2.82,4.42,4.49,4.49,0,0,0,0,.62c0,2,1.2,3.42,2,5.15A3.52,3.52,0,0,1,190,89c0,1.51-1.13,2.8-2,4.31a5.32,5.32,0,0,0-.73,2.66,6.93,6.93,0,0,0,.92,3.25c.46.83,1.14,1.77,1.7,2.76a6.38,6.38,0,0,1,1,3,2.94,2.94,0,0,1-.69,1.91.51.51,0,0,0-.12.32.56.56,0,0,0,.15.38.5.5,0,0,0,.36.16.44.44,0,0,0,.35-.18,4,4,0,0,0,1-2.58c0-1.59-1-3.09-1.87-4.58s-1.82-3-1.81-4.45" transform="translate(0.03)"/><path class="cls-1" d="M148.48,108.09h0a.51.51,0,0,0,.19.36.57.57,0,0,0,.66,0,.47.47,0,0,0,.15-.35v0a31.76,31.76,0,0,0-2.28-9.3.51.51,0,0,0-.49-.32.53.53,0,0,0-.34.11.39.39,0,0,0-.16.33.63.63,0,0,0,0,.19,31.25,31.25,0,0,1,2.24,9" transform="translate(0.03)"/><path class="cls-1" d="M109,152.82a29.73,29.73,0,0,0,13-3,.44.44,0,0,0,.26-.41.52.52,0,0,0-.52-.52.4.4,0,0,0-.23.05A28.58,28.58,0,0,1,109,151.81c-.77,0-1.53,0-2.3-.09h-.05a.44.44,0,0,0-.34.16.48.48,0,0,0-.11.32.53.53,0,0,0,.11.34.51.51,0,0,0,.36.19l0-.17,0,.17q1.17.09,2.34.09" transform="translate(0.03)"/><path class="cls-1" d="M88,30.9a.53.53,0,0,0,.49.57.57.57,0,0,0,.22,0l-.06-.15.06.15A25.18,25.18,0,0,1,98,29.78a.47.47,0,0,0,.38-.15.55.55,0,0,0,0-.67.46.46,0,0,0-.34-.18h0a25.93,25.93,0,0,0-9.82,1.74.43.43,0,0,0-.3.38" transform="translate(0.03)"/><path class="cls-1" d="M10.35,70.91a21.6,21.6,0,0,1,3-10.14.59.59,0,0,0,.07-.26.48.48,0,0,0-.17-.36.57.57,0,0,0-.36-.14.47.47,0,0,0-.41.25A22.67,22.67,0,0,0,9.34,70.9v0a.45.45,0,0,0,.16.36.54.54,0,0,0,.33.12.54.54,0,0,0,.34-.12.53.53,0,0,0,.18-.37" transform="translate(0.03)"/><path class="cls-1" d="M12.12,48.85a.54.54,0,0,0,.34-.12.48.48,0,0,0,.17-.37c.06-1.72.11-3.44.16-5.17v0a.46.46,0,0,0-.49-.47.49.49,0,0,0-.34.12.46.46,0,0,0-.17.36c-.06,1.73-.11,3.45-.16,5.17v0a.46.46,0,0,0,.17.36.5.5,0,0,0,.33.12" transform="translate(0.03)"/><path class="cls-1" d="M185.87,152.48a.48.48,0,0,0-.48.35,29.08,29.08,0,0,1-3.86,8.11.51.51,0,0,0-.09.27.47.47,0,0,0,.18.35.54.54,0,0,0,.35.13.51.51,0,0,0,.42-.22,30,30,0,0,0,4-8.36l0-.15a.46.46,0,0,0-.17-.36.54.54,0,0,0-.34-.12" transform="translate(0.03)"/><path class="cls-1" d="M152.44,146.47a.59.59,0,0,0,.05-.22.54.54,0,0,0-.53-.53.43.43,0,0,0-.41.27c-.83,1.83-1.67,3.65-2.5,5.48a.59.59,0,0,0-.05.22.55.55,0,0,0,.53.53.45.45,0,0,0,.41-.27l-.16-.07.16.07c.83-1.83,1.66-3.65,2.5-5.48" transform="translate(0.03)"/><path class="cls-1" d="M64,180.79a.58.58,0,0,0,.23,0,.56.56,0,0,0,.32-.68.45.45,0,0,0-.4-.29l-6-.5a.73.73,0,0,0-.22,0,.55.55,0,0,0-.33.68.48.48,0,0,0,.4.29v0l6,.5" transform="translate(0.03)"/><path class="cls-1" d="M99.31,178.76l-.17,0a15.1,15.1,0,0,1-8.68.56h-.12a.44.44,0,0,0-.37.17.6.6,0,0,0-.14.36.47.47,0,0,0,.38.46,16.21,16.21,0,0,0,3.67.42,16,16,0,0,0,5.55-1,.53.53,0,0,0,.34-.49.54.54,0,0,0-.12-.34.41.41,0,0,0-.34-.17" transform="translate(0.03)"/><path class="cls-1" d="M58.48,126.24a.53.53,0,0,0,.51-.53.48.48,0,0,0-.13-.33A7.42,7.42,0,0,1,57,120.52c0-.11,0-.22,0-.33v0a.45.45,0,0,0-.15-.36.53.53,0,0,0-.34-.11.51.51,0,0,0-.34.12.46.46,0,0,0-.17.36c0,.12,0,.25,0,.37a8.35,8.35,0,0,0,2.1,5.53.45.45,0,0,0,.34.17" transform="translate(0.03)"/><path class="cls-1" d="M54.57,97.24a.46.46,0,0,0,.16.37.55.55,0,0,0,.67,0,.46.46,0,0,0,.17-.36L55.69,93h0a.45.45,0,0,0-.16-.36.54.54,0,0,0-.68,0,.46.46,0,0,0-.17.36l-.11,4.22Z" transform="translate(0.03)"/><path class="cls-1" d="M149.44,74.79a.5.5,0,0,0-.18-.38.55.55,0,0,0-.37-.14.44.44,0,0,0-.28.09.49.49,0,0,0-.16.29,18.18,18.18,0,0,1-4.16,8.9.5.5,0,0,0-.13.34.52.52,0,0,0,.51.52.44.44,0,0,0,.35-.16,19.25,19.25,0,0,0,4.41-9.37Z" transform="translate(0.03)"/><path class="cls-1" d="M57.13,64.48a.53.53,0,0,0-.47.36A10.75,10.75,0,0,0,55.83,69q0,.41,0,.81a.49.49,0,0,0,.19.36.54.54,0,0,0,.34.12.46.46,0,0,0,.32-.11.45.45,0,0,0,.16-.35v0c0-.26,0-.51,0-.77a10,10,0,0,1,.78-3.87l0-.15a.54.54,0,0,0-.38-.49Z" transform="translate(0.03)"/><path class="cls-1" d="M12.21,99.68a.43.43,0,0,0-.15-.33.48.48,0,0,0-.32-.11.54.54,0,0,0-.34.12.52.52,0,0,0-.2.35,49.65,49.65,0,0,0-.37,6.09c0,1.35.05,2.7.16,4a.51.51,0,0,0,.19.36.53.53,0,0,0,.66,0,.45.45,0,0,0,.16-.35v-.05c-.11-1.34-.17-2.68-.17-4a51,51,0,0,1,.37-6Z" transform="translate(0.03)"/><path class="cls-1" d="M80.64,90.31a1.32,1.32,0,0,0,.91-.37h0a1.29,1.29,0,0,0,0-1.83,1.31,1.31,0,0,0-.91-.36A1.28,1.28,0,0,0,79.35,89a1.3,1.3,0,0,0,.38.92,1.29,1.29,0,0,0,.91.37" transform="translate(0.03)"/><path class="cls-1" d="M96,128.92a4.73,4.73,0,1,0-4.73-4.72A4.73,4.73,0,0,0,96,128.92m0-8.21a3.49,3.49,0,1,1-3.49,3.49A3.47,3.47,0,0,1,96,120.71" transform="translate(0.03)"/><path class="cls-1" d="M105.74,90.84A4.72,4.72,0,1,0,101,86.12a4.73,4.73,0,0,0,4.72,4.72m0-8.21a3.49,3.49,0,1,1,0,7,3.49,3.49,0,1,1,0-7" transform="translate(0.03)"/><path class="cls-1" d="M79.93,64.49A5.54,5.54,0,1,0,85.47,59a5.54,5.54,0,0,0-5.54,5.53m5.54-4.3a4.31,4.31,0,1,1-3,7.35,4.31,4.31,0,0,1,3-7.35" transform="translate(0.03)"/><path class="cls-1" d="M121.32,109.21a20.58,20.58,0,0,0-3.86-5.59,8.48,8.48,0,0,0-6-2.06,17.19,17.19,0,0,0-3.71.43l-.65.14-.29-.59c-4.22-8.66-7.43-15-10.11-19.24A24.21,24.21,0,0,0,93,77.58,5,5,0,0,0,89.66,76a4.81,4.81,0,0,0-3.1,1.35,3.13,3.13,0,0,0-1,2.3v.22c0,2.18,1.46,5.28,3.71,8.79a4.43,4.43,0,0,0-.9-.1,4.72,4.72,0,0,0,0,9.44,4.57,4.57,0,0,0,1-.12,1.37,1.37,0,0,0-.18.67,1.35,1.35,0,0,0,.37.91h0a1.37,1.37,0,0,0,.92.37,1.29,1.29,0,0,0,.91-2.2h0a1.25,1.25,0,0,0-.61-.32A4.72,4.72,0,0,0,93,94c2.76,3.6,6,7.32,9.14,10.69l.54.57-.54.58a10,10,0,0,0-2.94,7c0,4.2,2.56,7.94,3.78,9.74l.24.35c1.58,2.36,3.13,2.75,3.93,2.74a2.51,2.51,0,0,0,2.14-1.17,1.19,1.19,0,0,0,.17-.65,4.86,4.86,0,0,0-.46-1.72c-.28-.69-.67-1.49-1.12-2.42-1.24-2.52-2-4.34-2-5.41a1.5,1.5,0,0,1,0-.22l.14-1.36,1.15.75a11.87,11.87,0,0,1,3.36,4.81,7.73,7.73,0,0,0,1.75,2.57,3.88,3.88,0,0,0,2.53,1.2,2.69,2.69,0,0,0,1.94-.89,2.06,2.06,0,0,0,.55-1.5,6.83,6.83,0,0,0-.84-2.82c-.5-1-1.15-2.1-1.8-3.17a15.64,15.64,0,0,1-1.81-3.5l-.37-1.58,1.51.62a5,5,0,0,1,2.3,2.32,26.4,26.4,0,0,0,2.37,3.81,3.65,3.65,0,0,0,2.65,1.65,2.37,2.37,0,0,0,.93-.21,1.49,1.49,0,0,0,.8-1.2,3.48,3.48,0,0,0,0-.58,15,15,0,0,0-1.77-5.77M90.5,90.55l1.11,1.56a3.41,3.41,0,0,1,.21,1.16,3.52,3.52,0,1,1-1.32-2.72m21.9,17.7-.11.13-.1.07h0l-.1.12h0a1.74,1.74,0,0,0-.34,1.1,2.84,2.84,0,0,0,.09.69,16.38,16.38,0,0,0,2,3.88c1.87,3.08,2.51,4.58,2.51,5.38a1.1,1.1,0,0,1-.33.81,1.66,1.66,0,0,1-1.21.57,2.94,2.94,0,0,1-1.89-1,7,7,0,0,1-1.46-2.18,17.48,17.48,0,0,0-2.09-3.62c-.87-1.13-1.85-2-2.86-2a1.62,1.62,0,0,0-.44.07v0l-.22.13-.22.1,0,0a1.94,1.94,0,0,0-.59.67,2.23,2.23,0,0,0-.24,1.08c0,1.61,1.12,3.86,2.12,5.9l0,.08a18.54,18.54,0,0,1,1.4,3.27l.12.5-.4.33a1.53,1.53,0,0,1-1,.34c-.44,0-1.68-.2-3.09-2.3l-.25-.36c-1.75-2.58-3.58-5.86-3.58-9.2a9.32,9.32,0,0,1,3.52-7.16l.27-.23.13-.12-.37-.38A156.69,156.69,0,0,1,92.92,92.19a4.73,4.73,0,0,0-2.1-2.92c-2.48-3.63-4.31-7.12-4.3-9.38a1.27,1.27,0,0,1,0-.2,2.06,2.06,0,0,1,.69-1.58A3.84,3.84,0,0,1,89.66,77a4.25,4.25,0,0,1,2.84,1.42c3.1,2.94,7.08,10.66,13.83,24.55l.13.26.07.13.38-.12h0a16.26,16.26,0,0,1,4.49-.67,7.45,7.45,0,0,1,5.35,1.78,19.53,19.53,0,0,1,3.76,5.53A14.32,14.32,0,0,1,122.1,115a1.66,1.66,0,0,1,0,.24l-.09.86-.85-.11a2.75,2.75,0,0,1-1.62-1.18,25.1,25.1,0,0,1-2.34-3.74c-1-1.77-2.47-3-3.83-3a1.62,1.62,0,0,0-.89.24l0,0Z" transform="translate(0.03)"/><path class="cls-1" d="M122.24,116.76" transform="translate(0.03)"/><path class="cls-1" d="M89.68,118.83l.08,0,.08-.05.33-.2A18.52,18.52,0,0,0,95.84,113a13,13,0,0,0,2.33-6.71v-.16A4.62,4.62,0,0,0,95.84,102a4.37,4.37,0,0,0-2.15-.58,5.85,5.85,0,0,0-4.26,2.33l-.51.61-.64-.48a7.06,7.06,0,0,0-4.16-1.55,4.34,4.34,0,0,0-4.29,3.3,6.13,6.13,0,0,0-.22,1.62c0,3.1,2.35,5.89,4.72,7.94a29,29,0,0,0,5,3.49ZM81.45,106h0A2.61,2.61,0,0,1,84.12,104a6,6,0,0,1,4.29,2.29l.79.94.59-1.09a8.76,8.76,0,0,1,1.13-1.55,4,4,0,0,1,2.77-1.51,2.77,2.77,0,0,1,1.34.37,2.9,2.9,0,0,1,1.46,2.71v.12a11,11,0,0,1-1.83,5.39,17.18,17.18,0,0,1-4.51,4.95l-.45.34-.48-.3a27.89,27.89,0,0,1-4.51-3.42c-1.81-1.72-3.42-3.89-3.42-6a4.45,4.45,0,0,1,.15-1.13" transform="translate(0.03)"/><path class="cls-1" d="M80.9,99.45l-.12.12.44.4.16.15.37-.72a6.55,6.55,0,0,0,.85-3,3.39,3.39,0,0,0-.22-1.25,3,3,0,0,0-1.64-1.71l-.37-.14-.14,0-.25.48a5.06,5.06,0,0,0-.63,2.39,4.8,4.8,0,0,0,1.43,3.4Z" transform="translate(0.03)"/><path class="cls-1" d="M89.44,72.72h0a2.2,2.2,0,0,0,.18.47l.19.35.06.14.51-.2A4.93,4.93,0,0,0,93,71.32a5,5,0,0,0,.64-2.41,2.24,2.24,0,0,0,0-.38l-.06-.59,0-.22-.76.3A6.23,6.23,0,0,0,90,69.94a3.22,3.22,0,0,0-.65,1.92,3.29,3.29,0,0,0,.12.86" transform="translate(0.03)"/><path class="cls-1" d="M81.06,82.28h0l.41.41.16.16.4-.7a11.47,11.47,0,0,0,1.85-5.67,5.77,5.77,0,0,0-.29-1.87,5.23,5.23,0,0,0-2.64-3l-.36-.15-.14-.06-.27.46a9.11,9.11,0,0,0-1.37,4.7,8.48,8.48,0,0,0,2.25,5.74m-1-5.74a7.43,7.43,0,0,1,.62-2.93l.3-.69.53.54A3.82,3.82,0,0,1,82.42,75a4.62,4.62,0,0,1,.23,1.47,8.66,8.66,0,0,1-.84,3.43l-.42.95-.48-.92A7.13,7.13,0,0,1,80,76.54" transform="translate(0.03)"/><path class="cls-1" d="M112.15,99.89l.21,0,0-.8c-.12-2.9-1-4.55-2-5.46a4.15,4.15,0,0,0-2.81-1.07h-.35l-.1,0h0l-.41.08-.14,0,0,.52A6.81,6.81,0,0,0,108.49,98a6.47,6.47,0,0,0,3.09,1.77l0-.16,0,.16Zm-1.29-2.66.28,1.26-1.06-.74A5.23,5.23,0,0,1,108,94.63l-.23-.95.91.37c.74.3,1.73,1.07,2.21,3.18" transform="translate(0.03)"/><path class="cls-1" d="M95.8,53.75a1.29,1.29,0,0,0-.91.37h0a1.31,1.31,0,0,0-.37.91,1.33,1.33,0,0,0,.37.91h0a1.4,1.4,0,0,0,.91.37,1.35,1.35,0,0,0,.92-.39h0a1.28,1.28,0,0,0-.92-2.18" transform="translate(0.03)"/><path class="cls-1" d="M118.83,122.11h0a1.25,1.25,0,0,0,.89.38,1.3,1.3,0,0,0,.92-.38h0a1.22,1.22,0,0,0,.38-.9,1.28,1.28,0,0,0-.38-.91h0a1.31,1.31,0,0,0-.91-.36,1.27,1.27,0,0,0-.9.36h0a1.29,1.29,0,0,0,0,1.81" transform="translate(0.03)"/><path class="cls-1" d="M81,85.12a1.27,1.27,0,0,0,.42.95L84,88.54a1.27,1.27,0,0,0,.87.35,1.3,1.3,0,0,0,1-.42,1.26,1.26,0,0,0,.34-.87,1.31,1.31,0,0,0-.41-.95l-2.66-2.47a1.28,1.28,0,0,0-.88-.34,1.25,1.25,0,0,0-.94.41l.12.11-.12-.11a1.27,1.27,0,0,0-.35.87" transform="translate(0.03)"/><polygon class="cls-1" points="92.93 64.96 92.93 64.96 92.92 64.96 92.93 64.96"/><path class="cls-1" d="M95.25,60.44a.9.9,0,0,0,0-.28,1.3,1.3,0,0,0-1-1.26l-.29,0a1.29,1.29,0,0,0-1.26,1l-.81,3.55a1.5,1.5,0,0,0,0,.29,1.27,1.27,0,0,0,1,1.25.89.89,0,0,0,.28,0,1.29,1.29,0,0,0,1.26-1l-.17,0,.17,0Z" transform="translate(0.03)"/><path class="cls-1" d="M96,66.07h0a1.25,1.25,0,0,0,.9.38,1.33,1.33,0,0,0,.92-.37,1.32,1.32,0,0,0,0-1.83h0a1.33,1.33,0,0,0-.92-.36,1.31,1.31,0,0,0-.91.36h0a1.33,1.33,0,0,0-.37.91,1.24,1.24,0,0,0,.38.91h0" transform="translate(0.03)"/><path class="cls-1" d="M83.13,116.1h0a1.31,1.31,0,0,0-.91-.36,1.25,1.25,0,0,0-.9.36l.11.12-.11-.12a1.25,1.25,0,0,0-.39.91,1.34,1.34,0,0,0,.38.92h0a1.35,1.35,0,0,0,.91.37,1.27,1.27,0,0,0,.9-.38h0a1.23,1.23,0,0,0,.39-.9,1.25,1.25,0,0,0-.39-.91" transform="translate(0.03)"/><path class="cls-1" d="M100.08,80.82a1.32,1.32,0,0,0-.92-.36,1.29,1.29,0,0,0-.91.36h0a1.32,1.32,0,0,0-.38.91,1.36,1.36,0,0,0,.38.9,1.31,1.31,0,0,0,.91.39,1.35,1.35,0,0,0,.92-.39h0a1.29,1.29,0,0,0,0-1.81Z" transform="translate(0.03)"/><path class="cls-1" d="M105.6,49.74h0a1.32,1.32,0,0,0-.92-.36,1.26,1.26,0,0,0-1.28,1.27,1.28,1.28,0,0,0,2.2.9h0a1.35,1.35,0,0,0,.37-.9,1.38,1.38,0,0,0-.37-.91Z" transform="translate(0.03)"/><path class="cls-1" d="M91.67,56.6Z" transform="translate(0.03)"/><path class="cls-1" d="M91.67,58.42h0a1.31,1.31,0,0,0,.92.37,1.28,1.28,0,0,0,.9-.37h0a1.28,1.28,0,0,0,0-1.81h0a1.32,1.32,0,0,0-1.82,0,1.28,1.28,0,0,0,0,1.82" transform="translate(0.03)"/><path class="cls-1" d="M114.63,101.08h0a1.17,1.17,0,0,0,.69.35.53.53,0,0,0,.46-.3,1.32,1.32,0,0,0,.12-.59,2.72,2.72,0,0,0-.46-1.46,1.67,1.67,0,0,0-1.4-.81,1.12,1.12,0,0,0-.65.15.56.56,0,0,0-.24.46,1.6,1.6,0,0,0,.25.72,8.06,8.06,0,0,0,1.23,1.48" transform="translate(0.03)"/><path class="cls-1" d="M102,79.17h0l.71-.18a6.06,6.06,0,0,0,3.81-3.34,5,5,0,0,0,.5-1.75.47.47,0,0,1,0-.17v-1.5L107,72c0-.25-.09-.51-.15-.76a6.91,6.91,0,0,0-1.34-2.73,6.13,6.13,0,0,0-1.34-1.23h0a.57.57,0,0,1-.32-.25l0,0-.12-.08h0l-.1-.07h-.07a1,1,0,0,1-.25-.08l0,0h0a9.66,9.66,0,0,0-2.44-.34A5.66,5.66,0,0,0,95.87,69h0a6.35,6.35,0,0,0-1.21,3.39h0l0,1v.08a2.07,2.07,0,0,0,.13.69c.05.13.09.27.14.45a6.91,6.91,0,0,0,1.06,2.26,6.18,6.18,0,0,0,3.52,2.28l.43.09.16,0h1.68Zm-6-3.44a5.32,5.32,0,0,1-.73-2.7c0-.16,0-.31,0-.47a6.56,6.56,0,0,1,1.42-3.64,4.58,4.58,0,0,1,3.1-1.79,10.94,10.94,0,0,1,1.18-.08,4.74,4.74,0,0,1,1.68.28h0l.18.08.27.18.15.1.06-.11.48.32a5.14,5.14,0,0,1,1.51,1.57,7,7,0,0,1,1,3.57,4.87,4.87,0,0,1-.34,1.85,5.4,5.4,0,0,1-4.1,3.55,5.69,5.69,0,0,1-1.15.12A5.37,5.37,0,0,1,98.35,78l-.08.14.08-.14a5.56,5.56,0,0,1-2.29-2.22" transform="translate(0.03)"/><path class="cls-1" d="M100.57,77.57h.06l.11,0a.4.4,0,0,0,.21-.07,1.48,1.48,0,0,0,.25-.25.6.6,0,0,0,.13-.38l0-.13a.74.74,0,0,0-.6-.61,4.32,4.32,0,0,1-1.89-1,4.17,4.17,0,0,1-1.17-1.79.65.65,0,0,0-.29-.36.83.83,0,0,0-.42-.13l-.18,0a.78.78,0,0,0-.55.7l0,.18a7.09,7.09,0,0,0,.38,1,5.59,5.59,0,0,0,2.11,2.18,5,5,0,0,0,1.85.69" transform="translate(0.03)"/><path class="cls-1" d="M103.7,72.12h.15a.84.84,0,0,0,.57-.22.75.75,0,0,0,.23-.55v0a.78.78,0,0,0-.19-.58.86.86,0,0,0-.58-.22,2.78,2.78,0,0,1-.6-.1,2.26,2.26,0,0,1-1.63-2.13,1,1,0,0,0-.14-.49.68.68,0,0,0-.45-.27,1.18,1.18,0,0,0-.27,0,.69.69,0,0,0-.39.1.61.61,0,0,0-.26.39,2.7,2.7,0,0,0,0,.49,3.87,3.87,0,0,0,0,.48,3.75,3.75,0,0,0,3.57,3.15" transform="translate(0.03)"/><path class="cls-1" d="M99.55,53.72h0A3.42,3.42,0,0,0,98.27,55l-.09.12v0l-.31.91v.14c0,.11,0,.22,0,.33a2.89,2.89,0,0,0,1.23,2.3,7.74,7.74,0,0,0,2.69,1.41l.56.17,1,.31h0a.86.86,0,0,1,.68.54,4.48,4.48,0,0,0,.53,1,6.22,6.22,0,0,0,1.59,1.37l0,0h0a.79.79,0,0,1,.34.63v.11a3.13,3.13,0,0,0,0,.44,3.42,3.42,0,0,0,.12.86,8.71,8.71,0,0,0,1.17,2.6,3.47,3.47,0,0,0,1.39,1.36h0a.56.56,0,0,1,.29.34.79.79,0,0,1,.07.31h0c0,.24,0,.48,0,.72,0,.43,0,.83.05,1.24a2.08,2.08,0,0,0,.45,1.16.83.83,0,0,1,.21.55,1,1,0,0,1-.06.32l-.66,1.79,0,.14a7.41,7.41,0,0,0-.45,2.55v.14a2.92,2.92,0,0,0,1.4,2.67l.33.16.17.08h0l.24,0h0l.6.08h.24a3.72,3.72,0,0,0,1.46-.34,10.94,10.94,0,0,0,3.7-2.79c.57-.62,1.11-1.29,1.64-1.93l.44-.54a1.52,1.52,0,0,1,.66-.48,1.85,1.85,0,0,0,.92-.88c.06-.11.13-.21.2-.33l0-.05v0l.71-2.1,0-.19c0-.16,0-.31.08-.47a14.75,14.75,0,0,0,.31-3,14.34,14.34,0,0,0-.13-2,1.1,1.1,0,0,1,0-.18.92.92,0,0,1,.07-.36,3,3,0,0,0,.21-1.14,7,7,0,0,0-.2-1.49,14.48,14.48,0,0,0-1.05-3,14.13,14.13,0,0,0-2.22-3.4,5.11,5.11,0,0,0-1.32-1.13l0,0h0a3.33,3.33,0,0,1-1.51-1,4.36,4.36,0,0,0-.62-.53l-.55-.37c-.55-.37-1.11-.74-1.68-1.09a7.31,7.31,0,0,0-.83-.45l-.37-.19h0l-2.12-.71-.14,0-.4,0H109a1.54,1.54,0,0,0-1,.3.88.88,0,0,1-.57.16H107a24.28,24.28,0,0,0-4.09.34,9.56,9.56,0,0,0-3.37,1.14M120,74.55a.93.93,0,0,1-.72.41h-.09c-.43-.06-.86-.14-1.29-.22l-.7-.13L116,74.37c-.4-.08-.79-.18-1.24-.29L112,73.39a3.56,3.56,0,0,1-.83-.29,1.09,1.09,0,0,1-.56-.75c-.06-.52-.11-1-.15-1.55l-.08-1,10.85-2.64v.64c0,.16,0,.33,0,.49s0,.45,0,.67,0,.41,0,.61a15.88,15.88,0,0,1-.3,2.32,7.59,7.59,0,0,1-.94,2.61m-2.68,2.73c-.52.54-1,1.08-1.55,1.6A10.75,10.75,0,0,1,114.39,80a4.14,4.14,0,0,1-2.47,1h-.14a1.73,1.73,0,0,1-1.62-1.26,3.51,3.51,0,0,1-.16-1.09,5.32,5.32,0,0,1,.22-1.45c.14-.56.31-1.11.48-1.62a6.4,6.4,0,0,1,.27-.68l.07-.16h0a.68.68,0,0,1,.66-.45.72.72,0,0,1,.24,0l2.6.64,2.25.52.56.1.57.11.15.3h0l.18.33-.9,1,.12.12Zm-10.6-22.94c-.11.24-.21.47-.32.69s-.16.35-.25.52-.21.41-.3.63c-.32.68-.63,1.37-.93,2-.16.36-.3.72-.43,1.09a.78.78,0,0,1-.34.44.68.68,0,0,1-.33.08.71.71,0,0,1-.27-.05l-.66-.19c-.42-.12-.84-.25-1.25-.41a6.6,6.6,0,0,1-2.27-1.37,2,2,0,0,1-.63-1.38v-.07a2.07,2.07,0,0,1,.82-1.51,6.51,6.51,0,0,1,2.55-1.14,20.21,20.21,0,0,1,4.32-.52l.82,0Zm11,12.76c-1.56.4-3.22.8-4.91,1.19-.41.1-.82.18-1.24.25s-.77.14-1.16.23a1.57,1.57,0,0,1-.37,0,1.41,1.41,0,0,1-1.17-.68,9.82,9.82,0,0,1-1.29-2.57,1.75,1.75,0,0,1-.1-.56,1.55,1.55,0,0,1,.64-1.2c.41-.34.8-.69,1.2-1,.58-.51,1.16-1,1.76-1.5,1.08-.87,2.18-1.73,3.27-2.59l1.2-.93c.21-.17.44-.34.67-.51l.56-.41.3.19a10,10,0,0,1,3,3.71,11.27,11.27,0,0,1,1.35,4.72,2.44,2.44,0,0,1,0,.27l0,.36-1.38.38c-.75.22-1.51.43-2.27.63M108.4,53.2a.81.81,0,0,1,.74-.45h.15a8.9,8.9,0,0,1,2.14.65,14.2,14.2,0,0,1,2.48,1.35c.34.24.68.5,1,.77l.44.34.51.39-1.74,1.36c-.92.72-1.83,1.42-2.72,2.15s-1.74,1.44-2.61,2.18l-1.2,1-.32.23L107,63a6.39,6.39,0,0,1-1.7-1.47,1.23,1.23,0,0,1-.23-.65,1.37,1.37,0,0,1,0-.19,5.83,5.83,0,0,1,.25-.7l.15-.36,1.25-2.91c.21-.47.41-.94.63-1.4.35-.71.72-1.41,1.08-2.11l-.15-.08Z" transform="translate(0.03)"/><polygon class="cls-1" points="109.73 51.84 109.73 51.84 109.73 51.84 109.73 51.84"/><path class="cls-1" d="M85.88,56.49a.54.54,0,0,0,.52.52.46.46,0,0,0,.34-.15l-.12-.12.12.12a19.63,19.63,0,0,1,13.79-5.7h.36a.51.51,0,0,0,.37-.16.54.54,0,0,0,0-.68.48.48,0,0,0-.37-.17h-.37a20.62,20.62,0,0,0-14.49,6,.46.46,0,0,0-.15.34" transform="translate(0.03)"/><path class="cls-1" d="M104,128.41a.52.52,0,0,0-.12.33.54.54,0,0,0,.12.34.53.53,0,0,0,.37.18H105a17.19,17.19,0,0,0,11.82-4.75.48.48,0,0,0,.15-.34.53.53,0,0,0-.52-.52.51.51,0,0,0-.34.14,16.12,16.12,0,0,1-11.12,4.46h-.58a.45.45,0,0,0-.36.16" transform="translate(0.03)"/><path class="cls-1" d="M85.13,119.63a.58.58,0,0,0-.34.12.49.49,0,0,0-.18.36l0,.15a7.11,7.11,0,0,0,3.89,4.45.7.7,0,0,0,.25.05.49.49,0,0,0,.43-.24.58.58,0,0,0,.06-.26.47.47,0,0,0-.26-.44,6.13,6.13,0,0,1-3.4-3.83.5.5,0,0,0-.48-.36" transform="translate(0.03)"/><path class="cls-1" d="M123.61,109.7a.49.49,0,0,0,.28.09.62.62,0,0,0,.37-.13.53.53,0,0,0,.17-.39v-.1l-.16,0,.16,0A18.13,18.13,0,0,0,114.25,96,.54.54,0,0,0,114,96a.53.53,0,0,0-.52.54.43.43,0,0,0,.27.4,17.22,17.22,0,0,1,9.67,12.48.49.49,0,0,0,.16.29" transform="translate(0.03)"/><path class="cls-1" d="M117.74,79.45a.52.52,0,0,0-.36-.13.47.47,0,0,0-.41.22,11.7,11.7,0,0,1-5.46,4.23.5.5,0,0,0-.34.48.52.52,0,0,0,.12.34.42.42,0,0,0,.34.17l.18,0a12.76,12.76,0,0,0,6-4.66.48.48,0,0,0,.09-.27.44.44,0,0,0-.17-.35" transform="translate(0.03)"/><path class="cls-1" d="M99.41,22.44h0a37.17,37.17,0,0,1-10.47,1.5H87.86a.45.45,0,0,0-.36.15.49.49,0,0,0-.12.34.54.54,0,0,0,.12.34.46.46,0,0,0,.36.17L89,25a38.24,38.24,0,0,0,10.73-1.54.47.47,0,0,0,.35-.47.55.55,0,0,0-.12-.35.46.46,0,0,0-.36-.17Z" transform="translate(0.03)"/><path class="cls-1" d="M111,20.88h0a.48.48,0,0,0-.36.15.52.52,0,0,0-.11.33.54.54,0,0,0,.12.34.44.44,0,0,0,.36.18c.38,0,.76,0,1.14,0a20.07,20.07,0,0,0,12.53-4.42.45.45,0,0,0,.18-.35.48.48,0,0,0-.17-.36.52.52,0,0,0-.37-.15.51.51,0,0,0-.32.12,19,19,0,0,1-11.87,4.15c-.37,0-.73,0-1.1,0" transform="translate(0.03)"/><path class="cls-1" d="M57.05,46.68a.53.53,0,0,0-.49.33Q54.25,52.65,52,58.31a.44.44,0,0,0,.13.53.56.56,0,0,0,.33.1.52.52,0,0,0,.5-.32l4.61-11.31a.58.58,0,0,0,0-.18.43.43,0,0,0-.17-.34.6.6,0,0,0-.34-.11" transform="translate(0.03)"/><path class="cls-1" d="M58.15,44.16a.5.5,0,0,0-.37.17.54.54,0,0,0,0,.68.49.49,0,0,0,.37.16.47.47,0,0,0,.37-.16.51.51,0,0,0,0-.68.48.48,0,0,0-.37-.17" transform="translate(0.03)"/><path class="cls-1" d="M21.3,99.74a.52.52,0,0,0-.35.14l.12.12L21,99.88l-.88.91a.51.51,0,0,0-.15.36.47.47,0,0,0,.15.35h0a.53.53,0,0,0,.36.13.46.46,0,0,0,.35-.14c.3-.3.59-.6.88-.91a.51.51,0,0,0,.15-.36.49.49,0,0,0-.15-.35.54.54,0,0,0-.36-.14" transform="translate(0.03)"/><path class="cls-1" d="M20.57,115.35h0a.5.5,0,0,0-.24-.06.51.51,0,0,0-.44.24c-.22.37-.44.75-.67,1.12a.55.55,0,0,0-.07.25.5.5,0,0,0,.26.44.54.54,0,0,0,.25.06.48.48,0,0,0,.43-.24c.22-.37.44-.75.67-1.12a.45.45,0,0,0,.07-.25.48.48,0,0,0-.26-.44" transform="translate(0.03)"/><path class="cls-1" d="M44.7,101.14A.54.54,0,0,0,45,101a.47.47,0,0,0,.16-.37V93a.49.49,0,0,0-.16-.37.54.54,0,0,0-.68,0,.5.5,0,0,0-.17.37v7.7a.48.48,0,0,0,.17.37.54.54,0,0,0,.34.12" transform="translate(0.03)"/><path class="cls-1" d="M38.64,93.83a.5.5,0,0,0-.34.13.43.43,0,0,0-.16.37v16.39a.43.43,0,0,0,.16.37.51.51,0,0,0,.68,0,.47.47,0,0,0,.17-.37V94.33A.47.47,0,0,0,39,94a.5.5,0,0,0-.34-.13" transform="translate(0.03)"/><path class="cls-1" d="M43.55,121.06a.54.54,0,0,0,.34-.12.46.46,0,0,0,.16-.37v-11a.46.46,0,0,0-.16-.37.54.54,0,0,0-.68,0,.46.46,0,0,0-.16.37v11a.46.46,0,0,0,.16.37.54.54,0,0,0,.34.12" transform="translate(0.03)"/><path class="cls-1" d="M57.1,13.26c.3,0,.6,0,.9,0v0a.56.56,0,0,0,.36-.2.53.53,0,0,0,.11-.34.5.5,0,0,0-.11-.32A.43.43,0,0,0,58,12.2H58a7.89,7.89,0,0,1-.84.05,8.06,8.06,0,0,1-6.21-2.94.45.45,0,0,0-.34-.17.5.5,0,0,0-.36.16.56.56,0,0,0-.15.38.51.51,0,0,0,.12.32,9,9,0,0,0,6.91,3.26" transform="translate(0.03)"/><path class="cls-2" d="M102,146.22a45.12,45.12,0,0,1-22.11-5.33,37.53,37.53,0,0,1-8.11-6A33.41,33.41,0,0,1,66,127.33a25.75,25.75,0,0,1-2.81-11.6V68.4c0-3.15.56-9.5,1.66-12.26a30.66,30.66,0,0,1,4.67-7.94A37,37,0,0,1,77,41.67,38.21,38.21,0,0,1,86.63,37,44,44,0,0,1,102,34.39a47.35,47.35,0,0,1,11.81,1.46,42.92,42.92,0,0,1,10.29,4,33.09,33.09,0,0,1,8.1,5.94,28.67,28.67,0,0,1,6.68,9.86,37.32,37.32,0,0,1,1.93,12.72,24.53,24.53,0,0,1-4.38,14.11,22.7,22.7,0,0,1-4,4.76L129.26,90l2.89,3a49.56,49.56,0,0,1,4.35,5.26,24.37,24.37,0,0,1,4.33,14c0,5.93-1.4,12.79-4.63,17.85-4.3,6.73-11.39,11-18.79,13.51A47.37,47.37,0,0,1,102,146.22m0-100.45a30.19,30.19,0,0,0-14.86,3.66,24.26,24.26,0,0,0-10,9.8,19.35,19.35,0,0,0-2.25,9.17v44a18.64,18.64,0,0,0,1.38,7.13,23.75,23.75,0,0,0,3.42,5.78,27.48,27.48,0,0,0,12,8.07A31.75,31.75,0,0,0,102,135a30.13,30.13,0,0,0,14.87-3.67,24.68,24.68,0,0,0,10-9.79,19.35,19.35,0,0,0,2.25-9.17,19.63,19.63,0,0,0-3.42-11.07,23.92,23.92,0,0,0-8.84-7.91c-1.85-1-2.22-1.88-2.22-3.09,0-.54,0-1.79,2.32-3.14a26.13,26.13,0,0,0,8.65-7.58,19.78,19.78,0,0,0,3.51-11.19,19.56,19.56,0,0,0-4.88-13,27.32,27.32,0,0,0-11.89-8A31.71,31.71,0,0,0,102,45.77" transform="translate(0.03)"/><path class="cls-2" d="M42.67,238.57a15.26,15.26,0,0,1-7.79,13.72c-4.26,2.58-9.83,3.71-18.35,3.71H3.66A3.66,3.66,0,0,1,0,252.36V201.22a3.66,3.66,0,0,1,3.69-3.64H16.53c7.86,0,12.78.81,16.79,3.15a13,13,0,0,1,7,11.78c0,6.29-3.77,10.17-8.93,11.94v.16c7.29,1.78,11.31,6.7,11.31,14m-10.41-.24c0-5.65-4.43-8.55-12.3-8.55H13a2.55,2.55,0,0,0-2.58,2.53v7l-.1,11.39a.67.67,0,0,0,1.18.44l2.07-2.55a4.49,4.49,0,0,1,3.4-1.54H17c6.15,0,9.51-.64,11.8-2.09a7.36,7.36,0,0,0,3.45-6.62M10.49,226.18a.67.67,0,0,0,1.17.43L13.81,224a4.49,4.49,0,0,1,3.4-1.54h2.43c5.73,0,10.24-2.42,10.24-7.9a6.81,6.81,0,0,0-3.69-6.38c-2.29-1.29-5.08-1.61-10.32-1.61H13a2.55,2.55,0,0,0-2.58,2.53v6.08Z" transform="translate(0.03)"/><path class="cls-2" d="M92,250.29A3.63,3.63,0,0,1,89,256H85.82a3.72,3.72,0,0,1-3.06-1.6L68.08,233a2.62,2.62,0,0,0-2.16-1.14H60.74a1.37,1.37,0,0,0-1.38,1.36v19.13A3.67,3.67,0,0,1,55.67,256h-3A3.66,3.66,0,0,1,49,252.36V201.22a3.66,3.66,0,0,1,3.69-3.64h13.6c6.07,0,12,.41,16.64,2.9a15.5,15.5,0,0,1,8.52,14.21c0,7.9-4.83,14-13.19,16.05ZM78,221.63a8,8,0,0,0-1.23-13.32c-2.62-1.37-5.9-1.61-11.06-1.61H59.36V224h0l0,4.2a.82.82,0,0,0,1.45.53l2.4-2.74a5.87,5.87,0,0,1,4.42-2c4.75,0,7.94-.65,10.32-2.34" transform="translate(0.03)"/><path class="cls-2" d="M102.3,197.58h3a3.66,3.66,0,0,1,3.69,3.64v51.14a3.66,3.66,0,0,1-3.69,3.64h-3a3.66,3.66,0,0,1-3.69-3.64V201.22a3.66,3.66,0,0,1,3.69-3.64" transform="translate(0.03)"/><path class="cls-2" d="M162.44,201.13V203a3.67,3.67,0,0,1-3.7,3.64H137.13a1.66,1.66,0,0,0-.85,3.11l3.6,2.06a5.82,5.82,0,0,1,3,5.05v35.49a3.67,3.67,0,0,1-3.7,3.63h-3a3.66,3.66,0,0,1-3.7-3.63V210.26a3.66,3.66,0,0,0-3.69-3.64h-12A3.67,3.67,0,0,1,113,203v-1.85a3.67,3.67,0,0,1,3.7-3.63h42.06a3.66,3.66,0,0,1,3.7,3.63" transform="translate(0.03)"/><path class="cls-2" d="M187.41,246.88h11.51a3.66,3.66,0,0,1,3.69,3.64v1.85a3.66,3.66,0,0,1-3.69,3.63H170.08a3.67,3.67,0,0,1-3.7-3.63V201.22a3.67,3.67,0,0,1,3.7-3.64h28a3.66,3.66,0,0,1,3.69,3.64v1.84a3.66,3.66,0,0,1-3.69,3.64H180a3.17,3.17,0,0,0-3.2,3.15v4.63l0,0v11.89a.94.94,0,0,0,1.66.58l2-2.4a9.32,9.32,0,0,1,7.12-3.31h7.28a3.66,3.66,0,0,1,3.69,3.64v1.44a3.66,3.66,0,0,1-3.69,3.64H180a3.17,3.17,0,0,0-3.2,3.15V240l0,0v11.89a.94.94,0,0,0,1.66.58l1.88-2.24a9.29,9.29,0,0,1,7.12-3.31" transform="translate(0.03)"/></svg>