<svg xmlns="http://www.w3.org/2000/svg" width="68" height="68" fill="none" viewBox="0 0 68 68">
  <path fill="#fff" d="M26.292 26.412a3.108 3.108 0 00-2.237-1.007 3.108 3.108 0 00-3.15 3.046.996.996 0 101.992.033 1.106 1.106 0 011.924-.728.996.996 0 101.471-1.344zM31.591 29.658a2.853 2.853 0 00-1.63-1.554 2.852 2.852 0 00-3.656 1.68.996.996 0 101.868.693.857.857 0 011.098-.504.841.841 0 01.487.465.996.996 0 001.834-.78zM38.011 20.836a.996.996 0 00-1.408.002l-.939.94a.996.996 0 101.41 1.408l.939-.941a.996.996 0 00-.002-1.409zM31.814 33.696h-1.327a.996.996 0 100 1.992h1.328a.996.996 0 100-1.992zM41.994 33.696h-1.328a.996.996 0 100 1.992h1.328a.996.996 0 000-1.992z"/>
  <path fill="#fff" d="M67.968 51.656l-.26-1.4a1.888 1.888 0 00-2.2-1.513l-5.28.97 2.39-1.598a1.885 1.885 0 00.596-2.494l-.724-1.281a1.897 1.897 0 00-1.16-.897 1.9 1.9 0 00-.732-.046c.266-1.47.404-2.971.404-4.5 0-.677-.408-1.26-.99-1.52a7.639 7.639 0 00.06-5.78 1.2 1.2 0 00-.676-.677 7.58 7.58 0 00-3.185-.532c-.138-2.78-2.439-5-5.248-5-.37 0-.73.04-1.079.113a8.207 8.207 0 00-.464-4.384 1.229 1.229 0 00-.689-.695 8.163 8.163 0 00-3.033-.582c-1.57 0-3.07.44-4.366 1.261a9.851 9.851 0 00-2.346-3.752 1.68 1.68 0 00-1.196-.497 1.68 1.68 0 00-1.197.497l-4.823 4.834a5.007 5.007 0 00-4.21-1.197 5.056 5.056 0 00-2.728 1.434 5.06 5.06 0 00-3.052-.428c-.227.04-.448.095-.662.163v-3.724a4.703 4.703 0 00-4.612-4.7v-2.113a1.662 1.662 0 001.377-1.634V5.198c0-.916-.745-1.66-1.66-1.66H8.121c-.915 0-1.66.744-1.66 1.66v4.786c0 .819.596 1.5 1.377 1.634v2.112a4.702 4.702 0 00-4.612 4.7v29.072C1.238 49.298 0 51.804 0 54.576c0 5.451 4.785 9.886 10.666 9.886l39.868-.011c1.361-.001 2.64-.6 3.511-1.641a4.532 4.532 0 001-3.632l7.964 1.431a1.901 1.901 0 001.435-.322c.414-.296.694-.754.77-1.256l.215-1.448a1.887 1.887 0 00-1.446-2.116l-2.807-.644 5.275-.969c.498-.091.93-.37 1.216-.786.286-.415.393-.916.301-1.412zM56.581 32.371c.6 0 1.189.095 1.756.282a5.642 5.642 0 01-.477 4.58h-2.683l.856-.858a.996.996 0 10-1.41-1.407l-.453.454a4.618 4.618 0 00-1.07-1.839 5.57 5.57 0 013.48-1.212zm-5.618-4.99a3.27 3.27 0 013.263 3.271c0 .034-.002.067-.003.1a7.569 7.569 0 00-2.843 1.687 4.583 4.583 0 00-.402-.134 4.62 4.62 0 00-2.753-3.425 3.257 3.257 0 012.738-1.5zm-5.265-5.55c.676 0 1.341.11 1.982.327a6.24 6.24 0 01-.246 4.6 5.29 5.29 0 00-1.276 1.769c-.178.01-.356.03-.532.06a4.652 4.652 0 00-2.117.966 5.272 5.272 0 00-.754-1.046l2.285-2.29a.996.996 0 10-1.41-1.406l-2.498 2.502a5.204 5.204 0 00-1.528-.454 6.224 6.224 0 011.703-3.203 6.163 6.163 0 014.39-1.824zm-7.633 15.402h-.863a.996.996 0 00-1.853 0h-1.016a.996.996 0 00-1.554-1.223l-.939.94a.989.989 0 00-.196.283h-2.028a7.878 7.878 0 01-1.277-4.02h15.803a7.878 7.878 0 01-1.278 4.02h-2.11a.993.993 0 00-.197-.283l-.938-.94a.996.996 0 00-1.554 1.224zm-2.316-6.012a3.27 3.27 0 013.149-2.418 3.27 3.27 0 013.149 2.418h-6.298zm2.036-12.248a7.877 7.877 0 011.882 3.518 8.202 8.202 0 00-1.264 1.813.99.99 0 00-.52-.147h-1.327a.996.996 0 100 1.992h1.165a8.24 8.24 0 00-.154.834 5.206 5.206 0 00-1.126.44 5.028 5.028 0 00-3.066-2.342l-.002-.008a5.042 5.042 0 00-.4-1.276l4.813-4.824zM19.78 27.962a3.04 3.04 0 014.681-3.447.997.997 0 001.427-.248 3.016 3.016 0 012.014-1.319 3.021 3.021 0 013.553 2.982c.001.515.395.945.91.99a3.031 3.031 0 012.5 1.786 5.252 5.252 0 00-1.15 2.515h-5.681c-.707 0-1.313.436-1.565 1.053a7.546 7.546 0 00-4.267-1.31c-.967 0-1.914.183-2.816.542a1.202 1.202 0 00-.675.676 7.632 7.632 0 00-.465 1.77 3.015 3.015 0 01-.706-1.478 3.038 3.038 0 011.72-3.272.996.996 0 00.52-1.24zm2.97 9l.271.271h-2.392a5.644 5.644 0 01-.183-3.994 5.586 5.586 0 011.756-.282 5.58 5.58 0 014.372 2.095c.17.764.429 1.494.763 2.181h-1.501l-1.676-1.68a.996.996 0 10-1.41 1.408zm-4.242.271h-3.551a3.276 3.276 0 011.544-2.272 5.008 5.008 0 001.817 1.506c.05.258.113.514.19.767zM8.454 5.53h7.436v4.122H8.454V5.53zm6.06 6.114v2.085H9.83v-2.085h4.683zM5.219 22.47h6.468a.996.996 0 100-1.992H5.22V18.43a2.708 2.708 0 012.701-2.71h8.504a2.709 2.709 0 012.701 2.71v2.048h-1.86a.996.996 0 100 1.992h1.86v.884a5.02 5.02 0 00-1.44 4.448v.01a5.034 5.034 0 00-2.038 5.34 5.28 5.28 0 00-1.327 1.043h-9.1V22.47zm0 13.717h7.944c-.106.336-.18.686-.217 1.047h-.168c-.916 0-1.662.746-1.662 1.664 0 1.581.147 3.134.431 4.653-.286-.023-.58-.035-.878-.035-1.204 0-2.352.19-3.231.538-1.345.531-1.717 1.285-1.798 1.807-.142.07-.282.146-.421.222v-9.896zm12.613 12.237c.359.287.578.531.705.707H18.5c-.564 0-1.576-.227-2.728-.865a7.174 7.174 0 01-1.143-.776.996.996 0 00-1.288 0c-.319.27-.714.54-1.142.776-1.152.638-2.165.865-2.729.865h-.037c.127-.176.346-.42.705-.707a.996.996 0 00-.507-1.767c-.972-.114-1.586-.361-1.874-.542.36-.224 1.272-.607 2.913-.607 1.358 0 2.351.286 2.828.553.303.17.672.17.975 0 .476-.267 1.47-.553 2.828-.553 1.64 0 2.552.383 2.913.607-.288.18-.903.428-1.875.542a.996.996 0 00-.507 1.767zM15.84 60.548l.034.184c.118.64.368 1.227.717 1.738h-5.925c-4.783 0-8.674-3.541-8.674-7.894 0-2.975 1.818-5.57 4.495-6.915.308.23.69.427 1.146.587a2.36 2.36 0 00-.336.985c-.04.459.101.895.396 1.228.39.44.987.663 1.777.663 1.053 0 2.433-.417 3.694-1.115.29-.16.564-.33.821-.507.257.177.531.346.822.507 1.26.698 2.64 1.114 3.693 1.115.79 0 1.388-.223 1.777-.663.295-.333.436-.77.396-1.228a2.36 2.36 0 00-.335-.985 4.29 4.29 0 001.145-.587c2.123 1.067 3.705 2.92 4.27 5.125l-7.046 2.676a4.555 4.555 0 00-2.867 5.086zm36.676.985a2.577 2.577 0 01-1.983.925h-1.045l-.653-3.526a.996.996 0 10-1.96.363l.587 3.164-3.428.002-.441-2.385a.996.996 0 00-1.96.362l.375 2.023-7.972.004-.6-3.24a.996.996 0 10-1.959.364l.533 2.876-11.64.005a2.575 2.575 0 01-2.538-2.1l-.034-.185a2.563 2.563 0 011.617-2.86l3.914-1.488.292 1.574a.996.996 0 001.959-.363l-.358-1.93 5.811-2.208a.996.996 0 00-.707-1.862l-2.704 1.027c-.759-2.686-2.708-4.93-5.292-6.215-.081-.521-.453-1.275-1.798-1.806-.879-.347-2.026-.538-3.231-.538-.83 0-1.62.091-2.32.258v-.602a.996.996 0 00-1.611-.782 23.27 23.27 0 01-.26-3.165h32.445a.996.996 0 100-1.992h-.408a9.86 9.86 0 00.992-4.319c0-.879-.672-1.603-1.529-1.685a2.626 2.626 0 011.817-.719 2.632 2.632 0 012.637 2.637c0 .516.395.946.909.992a2.64 2.64 0 012.368 2.177c.054.313.047.622-.007.917h-1.069a.996.996 0 100 1.992h7.742a22.956 22.956 0 01-.699 5.344l-5.398 3.187a4.573 4.573 0 00-6.021-3l-11.118 4.223a.996.996 0 00.707 1.863l1.465-.557.455 2.456a.997.997 0 001.959-.363l-.52-2.812 7.76-2.948a2.585 2.585 0 012.185.161 2.56 2.56 0 011.272 1.77l2.015 10.88a2.547 2.547 0 01-.553 2.104zm3.554-7.797a.996.996 0 00-.042 1.95l7.416 1.701-.186 1.243-8.597-1.545-1.344-7.256 7.489-4.42.623 1.104-6.316 4.223a.996.996 0 00.734 1.807l9.922-1.822.22 1.192-9.919 1.823z"/>
</svg>
