<svg xmlns="http://www.w3.org/2000/svg" width="68" height="68" fill="none" viewBox="0 0 68 68">
  <path fill="#fff" d="M65.836 18.84a1.062 1.062 0 00-.702-.728L41.76 10.675a1.063 1.063 0 00-1.122.312L34 18.574l-6.637-7.587a1.062 1.062 0 00-1.122-.312L2.866 18.112a1.063 1.063 0 00-.479 1.713l6.826 7.8-6.826 7.8a1.063 1.063 0 00.479 1.713l6.696 2.13v17.044a1.062 1.062 0 00.7 1l23.375 8.5h.023a1 1 0 00.68 0h.023l11.114-4.038.033.142a1.063 1.063 0 001.787.514l1.503-1.502 4.636 4.637a1.062 1.062 0 001.503 0l3.004-3.006a1.062 1.062 0 000-1.502l-2.8-2.804 2.597-.942a1.062 1.062 0 00.697-.998V39.269l6.694-2.131a1.063 1.063 0 00.478-1.713l-6.822-7.8 6.825-7.8a1.063 1.063 0 00.224-.986zM34 33.947l-19.869-6.323 18.806-5.984v4.922a1.062 1.062 0 102.126 0V21.64l18.806 5.984L34 33.948zM26.221 12.91l5.911 6.757-21.166 6.735-5.91-6.756L26.22 12.91zM10.966 28.848l21.166 6.735-5.91 6.757-21.167-6.736 5.911-6.756zM54.187 63.31l-4.636-4.637a1.062 1.062 0 00-1.503 0l-.895.895-1.431-6.252 6.234 1.45-.9.903a1.063 1.063 0 000 1.502l4.636 4.636-1.505 1.503zm2.126-7.741l-2.832 1.025-.173-.173 1.502-1.504a1.061 1.061 0 00-.511-1.786l-9.752-2.27a1.062 1.062 0 00-1.275 1.276L45 59.688l-9.938 3.608V55.25a1.063 1.063 0 00-2.124 0v8.045l-21.25-7.726V39.95l14.556 4.63c.103.032.21.047.319.045a1.063 1.063 0 00.8-.362l5.575-6.375v8.862a1.062 1.062 0 102.124 0v-8.86l5.575 6.376a1.062 1.062 0 001.12.31l14.556-4.626v15.619zm-14.535-13.23l-5.91-6.756 21.166-6.735 5.91 6.756-21.166 6.736zm15.256-15.937l-21.166-6.735 5.91-6.757 21.167 6.736-5.911 6.756zM38.25 7.438a1.062 1.062 0 00.885-.473l.548-.823a4.243 4.243 0 013.535-1.892h1.407a1.062 1.062 0 100-2.125h-1.407a6.363 6.363 0 00-5.304 2.839l-.548.821a1.063 1.063 0 00.884 1.652zM24.225 4.229l1.895.379a3.198 3.198 0 012.567 3.126V8.5a1.062 1.062 0 102.125 0v-.766a5.326 5.326 0 00-4.27-5.206l-1.892-.382a1.063 1.063 0 10-.425 2.083zM52.798 9.843a3.195 3.195 0 012.55-1.416l-.187.521a3.187 3.187 0 002.984 4.347 3.175 3.175 0 002.547-1.281c.26-.347.446-.742.55-1.163a3.187 3.187 0 00-2.486-3.963l-.544-.106a4.24 4.24 0 013.257-2.426 1.063 1.063 0 00-.304-2.104 6.364 6.364 0 00-5.084 4.135l-.372-.07a1.035 1.035 0 00-.235-.019l-.202.008a5.318 5.318 0 00-4.242 2.363 1.063 1.063 0 001.768 1.177v-.003zm4.356-.151l.319-.884.891.168a1.054 1.054 0 01.858.932c.018.16.001.323-.05.477a1.062 1.062 0 01-1.31.75 1.053 1.053 0 01-.673-.547 1.072 1.072 0 01-.037-.896h.002zM3.344 4.356A4.242 4.242 0 016.6 6.79l-.544.107A3.197 3.197 0 003.95 8.325a3.245 3.245 0 00-.356 2.61 3.187 3.187 0 003.911 2.25 3.19 3.19 0 002.156-4.21l-.197-.55h.006a3.193 3.193 0 012.545 1.417 1.064 1.064 0 101.768-1.177 5.312 5.312 0 00-4.24-2.362l-.205-.008a.969.969 0 00-.235.018l-.371.07A6.364 6.364 0 003.648 2.25a1.064 1.064 0 10-.304 2.107zM7.67 9.72a1.069 1.069 0 01-1.53 1.31 1.124 1.124 0 01-.518-.736 1.062 1.062 0 01.828-1.318l.893-.168.327.912z"/>
  <path fill="#fff" d="M34 52.063a1.063 1.063 0 100-2.126 1.063 1.063 0 000 2.126zM34 31.875a1.063 1.063 0 100-2.125 1.063 1.063 0 000 2.125zM36.125 10.625a1.063 1.063 0 100-2.125 1.063 1.063 0 000 2.125zM47.813 4.25a1.063 1.063 0 100-2.125 1.063 1.063 0 000 2.125zM64.813 4.25a1.063 1.063 0 100-2.125 1.063 1.063 0 000 2.125zM21.25 4.25a1.063 1.063 0 100-2.125 1.063 1.063 0 000 2.125zM14.875 12.75a1.063 1.063 0 100-2.125 1.063 1.063 0 000 2.125z"/>
</svg>
