<svg xmlns="http://www.w3.org/2000/svg" width="68" height="68" fill="none" viewBox="0 0 68 68">
  <path fill="#fff" d="M18.063 7.438h1.062a1.063 1.063 0 000-2.125h-1.063a1.063 1.063 0 000 2.125zM23.375 7.438h1.063a1.063 1.063 0 000-2.125h-1.063a1.063 1.063 0 000 2.125z"/>
  <path fill="#fff" d="M64.813 12.75H40.374V7.437a5.312 5.312 0 00-5.313-5.312H7.439a5.312 5.312 0 00-5.313 5.313V55.25a5.312 5.312 0 005.313 5.313h20.187v4.25a1.062 1.062 0 001.063 1.062h21.25A1.062 1.062 0 0051 64.812v-6.374a1.062 1.062 0 00-1.063-1.063h-1.062v-.414c.001-.212.064-.419.18-.595l.691-1.042A7.438 7.438 0 0051 51.191V40.375h13.813a1.062 1.062 0 001.062-1.063v-25.5a1.062 1.062 0 00-1.063-1.062zM4.25 7.437A3.197 3.197 0 017.438 4.25h27.625a3.197 3.197 0 013.187 3.188V8.5h-34V7.437zm0 3.188h34v2.125h-3.188A1.062 1.062 0 0034 13.813v11.889a3.318 3.318 0 00-2.125 3.102v9.446h-1.063a3.197 3.197 0 00-3.187 3.188v8.5H4.25V10.624zm23.375 47.813H7.437A3.197 3.197 0 014.25 55.25v-3.188h23.439a7.446 7.446 0 001.19 3.262l.69 1.042c.117.176.18.383.181.595v.414h-1.063a1.062 1.062 0 00-1.062 1.063zm21.25 5.312H29.75V59.5h19.125v4.25zm0-12.559c0 1.051-.31 2.079-.892 2.954l-.702 1.041a3.187 3.187 0 00-.531 1.775v.414H31.875v-.414a3.187 3.187 0 00-.531-1.775l-.702-1.041a5.329 5.329 0 01-.892-2.954v-9.754a1.062 1.062 0 011.063-1.062h1.062v5.313a1.062 1.062 0 102.125 0V28.803a1.16 1.16 0 01.967-1.179 1.045 1.045 0 01.85.33.986.986 0 01.308.733v12.75a1.062 1.062 0 102.125 0v-5.313a1.062 1.062 0 011.475-.978c.13.056.246.14.342.245a.986.986 0 01.308.733v5.313a1.062 1.062 0 102.125 0v-4.25a1.062 1.062 0 011.475-.979c.13.057.246.14.342.245a.986.986 0 01.308.733v4.25a1.062 1.062 0 102.125 0v-2.124a1.062 1.062 0 011.475-.979c.13.057.246.14.342.245a.986.986 0 01.308.733v11.88zM63.75 38.25H50.809a3.158 3.158 0 00-.733-1.18 3.252 3.252 0 00-3.432-.722 3.127 3.127 0 00-.818-1.402A3.278 3.278 0 0042 34.414a2.913 2.913 0 00-.425-.53 3.258 3.258 0 00-3.326-.766v-4.43a3.139 3.139 0 00-.924-2.242 3.24 3.24 0 00-1.201-.755V14.875H63.75V38.25z"/>
  <path fill="#fff" d="M10.625 35.063H9.562a1.062 1.062 0 100 2.124h1.063a1.062 1.062 0 100-2.124zM25.5 35.063H14.875a1.062 1.062 0 100 2.124H25.5a1.062 1.062 0 100-2.124zM10.625 39.313H9.562a1.062 1.062 0 100 2.124h1.063a1.062 1.062 0 100-2.124zM23.375 39.313h-8.5a1.062 1.062 0 100 2.124h8.5a1.062 1.062 0 100-2.124zM10.625 43.563H9.562a1.062 1.062 0 100 2.124h1.063a1.062 1.062 0 100-2.124zM23.375 43.563h-8.5a1.062 1.062 0 100 2.124h8.5a1.062 1.062 0 100-2.124zM47.813 32.938a2.125 2.125 0 100-4.25 2.125 2.125 0 000 4.25zM53.125 32.938a2.125 2.125 0 100-4.25 2.125 2.125 0 000 4.25z"/>
  <path fill="#fff" d="M43.563 20.188h1.186l.148 1.18v.03l.795 6.359a1.062 1.062 0 001.058.93h7.438a1.062 1.062 0 001.008-.726l2.125-6.375a1.063 1.063 0 00-1.008-1.398H46.89l-.15-1.195a1.062 1.062 0 00-1.053-.93h-2.126a1.062 1.062 0 100 2.125zm11.276 2.125l-1.418 4.25h-5.737l-.531-4.25h7.686zM23.375 54.188h-4.25a1.062 1.062 0 100 2.124h4.25a1.062 1.062 0 100-2.124zM31.072 15.97l-4.232-1.063a1.05 1.05 0 00-.258-.032h-2.145a1.062 1.062 0 00-1.062 1.063 2.125 2.125 0 01-4.25 0 1.062 1.062 0 00-1.063-1.063h-2.151c-.088 0-.175.01-.26.032l-4.223 1.062A1.062 1.062 0 0010.625 17v4.25a1.061 1.061 0 001.32 1.03l2.93-.731v9.264a1.062 1.062 0 001.063 1.062h10.624a1.062 1.062 0 001.063-1.063V21.55l2.93.732a1.06 1.06 0 001.32-1.031V17a1.062 1.062 0 00-.803-1.03zm-1.322 3.919l-2.93-.732a1.071 1.071 0 00-1.212.565c-.071.145-.108.304-.108.465v9.563H17v-9.563a1.061 1.061 0 00-1.32-1.03l-2.93.732v-2.06L16.044 17h1.09a4.25 4.25 0 008.233 0h1.084l3.299.829v2.06z"/>
</svg>
